# MagicaVoxel @ Ephtracy

# group
o 

# material
mtllib eggs.mtl
usemtl palette

# normals
vn -1 0 0
vn 1 0 0
vn 0 0 1
vn 0 0 -1
vn 0 -1 0
vn 0 1 0

# texcoords
vt 0.0644531 0.5
vt 0.958984 0.5
vt 0.966797 0.5

# verts
v 0 2 -1.6
v 0 2 -4
v 0 2.3 -1.6
v 0 2.3 -4
v 0.3 2.2 -2.2
v 0.3 2.2 -2.5
v 0.3 2.2 -2.9
v 0.3 2.2 -3.6
v 0.3 2.3 -2.2
v 0.3 2.3 -2.5
v 0.3 2.3 -2.9
v 0.3 2.3 -3.6
v 0.4 2.2 -2
v 0.4 2.2 -2.2
v 0.4 2.2 -2.5
v 0.4 2.2 -2.9
v 0.4 2.2 -3.6
v 0.4 2.2 -3.7
v 0.4 2.3 -2
v 0.4 2.3 -2.2
v 0.4 2.3 -2.5
v 0.4 2.3 -2.9
v 0.4 2.3 -3.6
v 0.4 2.3 -3.7
v 0.5 2.2 -1.8
v 0.5 2.2 -2
v 0.5 2.3 -1.8
v 0.5 2.3 -2
v 0.5 2.3 -3
v 0.5 2.3 -3.5
v 0.5 2.4 -3
v 0.5 2.4 -3.5
v 0.6 2.3 -2.2
v 0.6 2.3 -2.5
v 0.6 2.4 -2.2
v 0.6 2.4 -2.5
v 2.3 2.2 -1.8
v 2.3 2.2 -3.8
v 2.3 2.3 -1.8
v 2.3 2.3 -3.8
v 0.2 2.2 -1.8
v 0.2 2.2 -3.8
v 0.2 2.3 -1.8
v 0.2 2.3 -3.8
v 0.7 2.2 -1.8
v 0.7 2.2 -1.9
v 0.7 2.3 -1.8
v 0.7 2.3 -1.9
v 0.8 2.3 -3
v 0.8 2.3 -3.5
v 0.8 2.4 -3
v 0.8 2.4 -3.5
v 0.9 2.2 -2.7
v 0.9 2.2 -2.8
v 0.9 2.2 -3.5
v 0.9 2.2 -3.7
v 0.9 2.3 -2.2
v 0.9 2.3 -2.5
v 0.9 2.3 -2.7
v 0.9 2.3 -2.8
v 0.9 2.3 -3.5
v 0.9 2.3 -3.7
v 0.9 2.4 -2.2
v 0.9 2.4 -2.5
v 1 2.2 -1.9
v 1 2.2 -2.1
v 1 2.2 -2.8
v 1 2.2 -3.1
v 1 2.3 -1.9
v 1 2.3 -2.1
v 1 2.3 -2.8
v 1 2.3 -3.1
v 1.1 2.2 -2.6
v 1.1 2.2 -2.7
v 1.1 2.2 -3.1
v 1.1 2.2 -3.2
v 1.1 2.2 -3.4
v 1.1 2.2 -3.5
v 1.1 2.3 -2.6
v 1.1 2.3 -2.7
v 1.1 2.3 -3.1
v 1.1 2.3 -3.2
v 1.1 2.3 -3.4
v 1.1 2.3 -3.5
v 1.2 2.2 -2.1
v 1.2 2.2 -2.6
v 1.2 2.2 -3.2
v 1.2 2.2 -3.4
v 1.2 2.3 -2.1
v 1.2 2.3 -2.6
v 1.2 2.3 -3.2
v 1.2 2.3 -3.4
v 2.5 2 -1.6
v 2.5 2 -4
v 2.5 2.3 -1.6
v 2.5 2.3 -4
v 0 2 -1.6
v 0 2.3 -1.6
v 2.5 2 -1.6
v 2.5 2.3 -1.6
v 0.7 2.2 -1.9
v 0.7 2.3 -1.9
v 1 2.2 -1.9
v 1 2.3 -1.9
v 0.4 2.2 -2
v 0.4 2.3 -2
v 0.5 2.2 -2
v 0.5 2.3 -2
v 1 2.2 -2.1
v 1 2.3 -2.1
v 1.2 2.2 -2.1
v 1.2 2.3 -2.1
v 0.3 2.2 -2.2
v 0.3 2.3 -2.2
v 0.4 2.2 -2.2
v 0.4 2.3 -2.2
v 0.6 2.3 -2.2
v 0.6 2.4 -2.2
v 0.9 2.3 -2.2
v 0.9 2.4 -2.2
v 0.9 2.2 -2.8
v 0.9 2.3 -2.8
v 1 2.2 -2.8
v 1 2.3 -2.8
v 0.3 2.2 -2.9
v 0.3 2.3 -2.9
v 0.4 2.2 -2.9
v 0.4 2.3 -2.9
v 0.5 2.3 -3
v 0.5 2.4 -3
v 0.8 2.3 -3
v 0.8 2.4 -3
v 1 2.2 -3.1
v 1 2.3 -3.1
v 1.1 2.2 -3.1
v 1.1 2.3 -3.1
v 1.1 2.2 -3.2
v 1.1 2.3 -3.2
v 1.2 2.2 -3.2
v 1.2 2.3 -3.2
v 0.2 2.2 -3.8
v 0.2 2.3 -3.8
v 2.3 2.2 -3.8
v 2.3 2.3 -3.8
v 0.2 2.2 -1.8
v 0.2 2.3 -1.8
v 0.5 2.2 -1.8
v 0.5 2.3 -1.8
v 0.7 2.2 -1.8
v 0.7 2.3 -1.8
v 2.3 2.2 -1.8
v 2.3 2.3 -1.8
v 0.3 2.2 -2.5
v 0.3 2.3 -2.5
v 0.4 2.2 -2.5
v 0.4 2.3 -2.5
v 0.6 2.3 -2.5
v 0.6 2.4 -2.5
v 0.9 2.3 -2.5
v 0.9 2.4 -2.5
v 1.1 2.2 -2.6
v 1.1 2.3 -2.6
v 1.2 2.2 -2.6
v 1.2 2.3 -2.6
v 0.9 2.2 -2.7
v 0.9 2.3 -2.7
v 1.1 2.2 -2.7
v 1.1 2.3 -2.7
v 1.1 2.2 -3.4
v 1.1 2.3 -3.4
v 1.2 2.2 -3.4
v 1.2 2.3 -3.4
v 0.5 2.3 -3.5
v 0.5 2.4 -3.5
v 0.8 2.3 -3.5
v 0.8 2.4 -3.5
v 0.9 2.2 -3.5
v 0.9 2.3 -3.5
v 1.1 2.2 -3.5
v 1.1 2.3 -3.5
v 0.3 2.2 -3.6
v 0.3 2.3 -3.6
v 0.4 2.2 -3.6
v 0.4 2.3 -3.6
v 0.4 2.2 -3.7
v 0.4 2.3 -3.7
v 0.9 2.2 -3.7
v 0.9 2.3 -3.7
v 0 2 -4
v 0 2.3 -4
v 2.5 2 -4
v 2.5 2.3 -4
v 0 2 -1.6
v 2.5 2 -1.6
v 0 2 -4
v 2.5 2 -4
v 0.2 2.2 -1.8
v 0.5 2.2 -1.8
v 0.7 2.2 -1.8
v 2.3 2.2 -1.8
v 0.7 2.2 -1.9
v 1 2.2 -1.9
v 0.4 2.2 -2
v 0.5 2.2 -2
v 1 2.2 -2.1
v 1.2 2.2 -2.1
v 0.3 2.2 -2.2
v 0.4 2.2 -2.2
v 0.3 2.2 -2.5
v 0.4 2.2 -2.5
v 1.1 2.2 -2.6
v 1.2 2.2 -2.6
v 0.9 2.2 -2.7
v 1.1 2.2 -2.7
v 0.9 2.2 -2.8
v 1 2.2 -2.8
v 0.3 2.2 -2.9
v 0.4 2.2 -2.9
v 1 2.2 -3.1
v 1.1 2.2 -3.1
v 1.1 2.2 -3.2
v 1.2 2.2 -3.2
v 1.1 2.2 -3.4
v 1.2 2.2 -3.4
v 0.9 2.2 -3.5
v 1.1 2.2 -3.5
v 0.3 2.2 -3.6
v 0.4 2.2 -3.6
v 0.4 2.2 -3.7
v 0.9 2.2 -3.7
v 0.2 2.2 -3.8
v 2.3 2.2 -3.8
v 0 2.3 -1.6
v 2.5 2.3 -1.6
v 0.2 2.3 -1.8
v 0.5 2.3 -1.8
v 0.7 2.3 -1.8
v 2.3 2.3 -1.8
v 0.7 2.3 -1.9
v 1 2.3 -1.9
v 0.4 2.3 -2
v 0.5 2.3 -2
v 1 2.3 -2.1
v 1.2 2.3 -2.1
v 0.3 2.3 -2.2
v 0.4 2.3 -2.2
v 0.6 2.3 -2.2
v 0.9 2.3 -2.2
v 0.3 2.3 -2.5
v 0.4 2.3 -2.5
v 0.6 2.3 -2.5
v 0.9 2.3 -2.5
v 1.1 2.3 -2.6
v 1.2 2.3 -2.6
v 0.9 2.3 -2.7
v 1.1 2.3 -2.7
v 0.9 2.3 -2.8
v 1 2.3 -2.8
v 0.3 2.3 -2.9
v 0.4 2.3 -2.9
v 0.5 2.3 -3
v 0.8 2.3 -3
v 1 2.3 -3.1
v 1.1 2.3 -3.1
v 1.1 2.3 -3.2
v 1.2 2.3 -3.2
v 1.1 2.3 -3.4
v 1.2 2.3 -3.4
v 0.5 2.3 -3.5
v 0.8 2.3 -3.5
v 0.9 2.3 -3.5
v 1.1 2.3 -3.5
v 0.3 2.3 -3.6
v 0.4 2.3 -3.6
v 0.4 2.3 -3.7
v 0.9 2.3 -3.7
v 0.2 2.3 -3.8
v 2.3 2.3 -3.8
v 0 2.3 -4
v 2.5 2.3 -4
v 0.6 2.4 -2.2
v 0.9 2.4 -2.2
v 0.6 2.4 -2.5
v 0.9 2.4 -2.5
v 0.5 2.4 -3
v 0.8 2.4 -3
v 0.5 2.4 -3.5
v 0.8 2.4 -3.5

# faces
f 3/3/1 2/3/1 1/3/1
f 4/3/1 2/3/1 3/3/1
f 9/2/1 6/2/1 5/2/1
f 10/2/1 6/2/1 9/2/1
f 11/2/1 8/2/1 7/2/1
f 12/2/1 8/2/1 11/2/1
f 19/2/1 14/2/1 13/2/1
f 20/2/1 14/2/1 19/2/1
f 21/2/1 16/2/1 15/2/1
f 22/2/1 16/2/1 21/2/1
f 23/2/1 18/2/1 17/2/1
f 24/2/1 18/2/1 23/2/1
f 27/2/1 26/2/1 25/2/1
f 28/2/1 26/2/1 27/2/1
f 31/1/1 30/1/1 29/1/1
f 32/1/1 30/1/1 31/1/1
f 35/1/1 34/1/1 33/1/1
f 36/1/1 34/1/1 35/1/1
f 39/3/1 38/3/1 37/3/1
f 40/3/1 38/3/1 39/3/1
f 41/3/2 42/3/2 43/3/2
f 43/3/2 42/3/2 44/3/2
f 45/2/2 46/2/2 47/2/2
f 47/2/2 46/2/2 48/2/2
f 49/1/2 50/1/2 51/1/2
f 51/1/2 50/1/2 52/1/2
f 53/2/2 54/2/2 59/2/2
f 59/2/2 54/2/2 60/2/2
f 55/2/2 56/2/2 61/2/2
f 61/2/2 56/2/2 62/2/2
f 57/1/2 58/1/2 63/1/2
f 63/1/2 58/1/2 64/1/2
f 65/2/2 66/2/2 69/2/2
f 69/2/2 66/2/2 70/2/2
f 67/2/2 68/2/2 71/2/2
f 71/2/2 68/2/2 72/2/2
f 73/2/2 74/2/2 79/2/2
f 79/2/2 74/2/2 80/2/2
f 75/2/2 76/2/2 81/2/2
f 81/2/2 76/2/2 82/2/2
f 77/2/2 78/2/2 83/2/2
f 83/2/2 78/2/2 84/2/2
f 85/2/2 86/2/2 89/2/2
f 89/2/2 86/2/2 90/2/2
f 87/2/2 88/2/2 91/2/2
f 91/2/2 88/2/2 92/2/2
f 93/3/2 94/3/2 95/3/2
f 95/3/2 94/3/2 96/3/2
f 99/3/3 98/3/3 97/3/3
f 100/3/3 98/3/3 99/3/3
f 103/2/3 102/2/3 101/2/3
f 104/2/3 102/2/3 103/2/3
f 107/2/3 106/2/3 105/2/3
f 108/2/3 106/2/3 107/2/3
f 111/2/3 110/2/3 109/2/3
f 112/2/3 110/2/3 111/2/3
f 115/2/3 114/2/3 113/2/3
f 116/2/3 114/2/3 115/2/3
f 119/1/3 118/1/3 117/1/3
f 120/1/3 118/1/3 119/1/3
f 123/2/3 122/2/3 121/2/3
f 124/2/3 122/2/3 123/2/3
f 127/2/3 126/2/3 125/2/3
f 128/2/3 126/2/3 127/2/3
f 131/1/3 130/1/3 129/1/3
f 132/1/3 130/1/3 131/1/3
f 135/2/3 134/2/3 133/2/3
f 136/2/3 134/2/3 135/2/3
f 139/2/3 138/2/3 137/2/3
f 140/2/3 138/2/3 139/2/3
f 143/3/3 142/3/3 141/3/3
f 144/3/3 142/3/3 143/3/3
f 145/3/4 146/3/4 147/3/4
f 147/3/4 146/3/4 148/3/4
f 149/3/4 150/3/4 151/3/4
f 151/3/4 150/3/4 152/3/4
f 153/2/4 154/2/4 155/2/4
f 155/2/4 154/2/4 156/2/4
f 157/1/4 158/1/4 159/1/4
f 159/1/4 158/1/4 160/1/4
f 161/2/4 162/2/4 163/2/4
f 163/2/4 162/2/4 164/2/4
f 165/2/4 166/2/4 167/2/4
f 167/2/4 166/2/4 168/2/4
f 169/2/4 170/2/4 171/2/4
f 171/2/4 170/2/4 172/2/4
f 173/1/4 174/1/4 175/1/4
f 175/1/4 174/1/4 176/1/4
f 177/2/4 178/2/4 179/2/4
f 179/2/4 178/2/4 180/2/4
f 181/2/4 182/2/4 183/2/4
f 183/2/4 182/2/4 184/2/4
f 185/2/4 186/2/4 187/2/4
f 187/2/4 186/2/4 188/2/4
f 189/3/4 190/3/4 191/3/4
f 191/3/4 190/3/4 192/3/4
f 195/3/5 194/3/5 193/3/5
f 196/3/5 194/3/5 195/3/5
f 199/3/6 200/3/6 201/3/6
f 201/3/6 200/3/6 202/3/6
f 197/3/6 198/3/6 203/3/6
f 203/3/6 198/3/6 204/3/6
f 202/3/6 200/3/6 205/3/6
f 205/3/6 200/3/6 206/3/6
f 197/3/6 203/3/6 207/3/6
f 207/3/6 203/3/6 208/3/6
f 197/3/6 207/3/6 209/3/6
f 206/3/6 200/3/6 212/3/6
f 211/3/6 212/3/6 214/3/6
f 213/3/6 214/3/6 215/3/6
f 215/3/6 214/3/6 216/3/6
f 197/3/6 209/3/6 217/3/6
f 209/3/6 210/3/6 217/3/6
f 217/3/6 210/3/6 218/3/6
f 216/3/6 214/3/6 219/3/6
f 214/3/6 212/3/6 220/3/6
f 219/3/6 214/3/6 220/3/6
f 220/3/6 212/3/6 221/3/6
f 212/3/6 200/3/6 222/3/6
f 221/3/6 212/3/6 222/3/6
f 222/3/6 200/3/6 224/3/6
f 223/3/6 224/3/6 226/3/6
f 197/3/6 217/3/6 227/3/6
f 227/3/6 228/3/6 229/3/6
f 225/3/6 226/3/6 230/3/6
f 227/3/6 229/3/6 231/3/6
f 229/3/6 230/3/6 231/3/6
f 197/3/6 227/3/6 231/3/6
f 230/3/6 226/3/6 232/3/6
f 231/3/6 230/3/6 232/3/6
f 224/3/6 200/3/6 232/3/6
f 226/3/6 224/3/6 232/3/6
f 233/3/6 234/3/6 235/3/6
f 235/3/6 234/3/6 236/3/6
f 236/3/6 234/3/6 237/3/6
f 237/3/6 234/3/6 238/3/6
f 236/2/6 237/2/6 239/2/6
f 236/2/6 239/2/6 242/2/6
f 239/2/6 240/2/6 242/2/6
f 242/2/6 240/2/6 243/2/6
f 241/2/6 242/2/6 243/2/6
f 241/2/6 243/2/6 246/2/6
f 243/2/6 244/2/6 246/2/6
f 246/2/6 244/2/6 247/2/6
f 247/2/6 244/2/6 248/2/6
f 245/2/6 246/2/6 249/2/6
f 246/2/6 247/2/6 249/2/6
f 249/2/6 247/2/6 250/2/6
f 250/2/6 247/2/6 251/2/6
f 248/2/6 244/2/6 252/2/6
f 250/2/6 251/2/6 253/2/6
f 251/2/6 252/2/6 253/2/6
f 252/2/6 244/2/6 253/2/6
f 253/2/6 244/2/6 254/2/6
f 250/2/6 253/2/6 255/2/6
f 255/2/6 253/2/6 256/2/6
f 250/2/6 255/2/6 257/2/6
f 250/2/6 257/2/6 260/2/6
f 257/2/6 258/2/6 260/2/6
f 260/2/6 258/2/6 261/2/6
f 259/2/6 260/2/6 261/2/6
f 261/2/6 258/2/6 262/2/6
f 262/2/6 258/2/6 263/2/6
f 263/2/6 264/2/6 265/2/6
f 263/2/6 265/2/6 267/2/6
f 265/2/6 266/2/6 267/2/6
f 267/2/6 266/2/6 268/2/6
f 259/2/6 261/2/6 269/2/6
f 262/2/6 263/2/6 270/2/6
f 263/2/6 267/2/6 270/2/6
f 270/2/6 267/2/6 271/2/6
f 271/2/6 267/2/6 272/2/6
f 259/2/6 269/2/6 273/2/6
f 269/2/6 270/2/6 273/2/6
f 270/2/6 271/2/6 273/2/6
f 273/2/6 271/2/6 274/2/6
f 274/2/6 271/2/6 275/2/6
f 275/2/6 271/2/6 276/2/6
f 233/3/6 235/3/6 277/3/6
f 238/3/6 234/3/6 278/3/6
f 233/3/6 277/3/6 279/3/6
f 277/3/6 278/3/6 279/3/6
f 278/3/6 234/3/6 280/3/6
f 279/3/6 278/3/6 280/3/6
f 281/1/6 282/1/6 283/1/6
f 283/1/6 282/1/6 284/1/6
f 285/1/6 286/1/6 287/1/6
f 287/1/6 286/1/6 288/1/6
