# MagicaVoxel @ Ephtracy

# group
g CounterDishwasher

# material
mtllib CounterDishwasher.mtl
usemtl palette

# normals
vn -1 0 0
vn 1 0 0
vn 0 0 1
vn 0 0 -1
vn 0 -1 0
vn 0 1 0

# texcoords
vt 0.853516 0.5
vt 0.916016 0.5
vt 0.947266 0.5
vt 0.951172 0.5
vt 0.978516 0.5
vt 0.982422 0.5
vt 0.994141 0.5

# verts
v -8 0 6
v -8 0 5
v -8 0 -7
v -8 1 6
v -8 1 5
v -8 15 7
v -8 15 5
v -8 15 -7
v -8 16 7
v -8 16 -7
v -7 1 6
v -7 1 5
v -7 9 6
v -7 9 5
v -7 10 6
v -7 10 5
v -7 12 6
v -7 12 5
v -7 13 6
v -7 13 5
v 7 1 6
v 7 1 5
v 7 9 6
v 7 9 5
v 7 10 6
v 7 10 5
v 7 12 6
v 7 12 5
v 7 13 6
v 7 13 5
v 8 0 6
v 8 0 5
v 8 0 4
v 8 0 -7
v 8 1 6
v 8 1 5
v 8 15 7
v 8 15 5
v 8 15 4
v 8 15 -7
v 8 16 7
v 8 16 -7
v -8 15 7
v -8 16 7
v 8 15 7
v 8 16 7
v -8 0 6
v -8 1 6
v -7 0 6
v -7 1 6
v -7 9 6
v -7 10 6
v -7 12 6
v -7 13 6
v 3 11 6
v 3 12 6
v 6 11 6
v 6 12 6
v 7 0 6
v 7 1 6
v 7 9 6
v 7 10 6
v 7 12 6
v 7 13 6
v 8 0 6
v 8 1 6
v -8 1 5
v -8 15 5
v -7 1 5
v -7 9 5
v -7 10 5
v -7 12 5
v -7 13 5
v 7 1 5
v 7 9 5
v 7 10 5
v 7 12 5
v 7 13 5
v 8 1 5
v 8 15 5
v -8 0 -7
v -8 15 -7
v -8 16 -7
v -7 0 -7
v -7 15 -7
v 8 0 -7
v 8 15 -7
v 8 16 -7
v -8 0 6
v -7 0 6
v 7 0 6
v 8 0 6
v -8 0 5
v -7 0 5
v 7 0 5
v 8 0 5
v 7 0 4
v 8 0 4
v -7 0 -6
v 7 0 -6
v -8 0 -7
v -7 0 -7
v 8 0 -7
v -8 15 7
v 8 15 7
v -8 15 5
v 8 15 5
v -8 1 6
v -7 1 6
v 7 1 6
v 8 1 6
v -8 1 5
v -7 1 5
v 7 1 5
v 8 1 5
v -7 13 6
v 7 13 6
v -7 13 5
v 7 13 5
v -8 16 7
v 8 16 7
v -8 16 -7
v 8 16 -7

# faces
f 4/2/1 2/2/1 1/2/1
f 5/5/1 3/5/1 2/5/1
f 5/2/1 2/2/1 4/2/1
f 7/5/1 3/5/1 5/5/1
f 8/5/1 3/5/1 7/5/1
f 9/1/1 7/1/1 6/1/1
f 9/1/1 8/1/1 7/1/1
f 10/1/1 8/1/1 9/1/1
f 13/6/1 12/6/1 11/6/1
f 14/6/1 12/6/1 13/6/1
f 15/4/1 14/4/1 13/4/1
f 16/4/1 14/4/1 15/4/1
f 17/6/1 16/6/1 15/6/1
f 18/6/1 16/6/1 17/6/1
f 19/4/1 18/4/1 17/4/1
f 20/4/1 18/4/1 19/4/1
f 21/6/2 22/6/2 23/6/2
f 23/6/2 22/6/2 24/6/2
f 23/4/2 24/4/2 25/4/2
f 25/4/2 24/4/2 26/4/2
f 25/6/2 26/6/2 27/6/2
f 27/6/2 26/6/2 28/6/2
f 27/4/2 28/4/2 29/4/2
f 29/4/2 28/4/2 30/4/2
f 31/2/2 32/2/2 35/2/2
f 32/5/2 33/5/2 36/5/2
f 35/2/2 32/2/2 36/2/2
f 36/5/2 33/5/2 38/5/2
f 33/3/2 34/3/2 39/3/2
f 38/5/2 33/5/2 39/5/2
f 39/3/2 34/3/2 40/3/2
f 37/1/2 38/1/2 41/1/2
f 38/1/2 39/1/2 41/1/2
f 39/1/2 40/1/2 41/1/2
f 41/1/2 40/1/2 42/1/2
f 45/1/3 44/1/3 43/1/3
f 46/1/3 44/1/3 45/1/3
f 49/2/3 48/2/3 47/2/3
f 50/2/3 48/2/3 49/2/3
f 55/6/3 53/6/3 52/6/3
f 56/4/3 54/4/3 53/4/3
f 56/6/3 53/6/3 55/6/3
f 57/6/3 55/6/3 52/6/3
f 57/7/3 56/7/3 55/7/3
f 58/4/3 54/4/3 56/4/3
f 58/7/3 56/7/3 57/7/3
f 59/6/3 50/6/3 49/6/3
f 59/6/3 51/6/3 50/6/3
f 60/6/3 51/6/3 59/6/3
f 61/4/3 52/4/3 51/4/3
f 61/6/3 51/6/3 60/6/3
f 62/6/3 58/6/3 57/6/3
f 62/4/3 52/4/3 61/4/3
f 62/6/3 57/6/3 52/6/3
f 63/4/3 54/4/3 58/4/3
f 63/6/3 58/6/3 62/6/3
f 64/4/3 54/4/3 63/4/3
f 65/2/3 60/2/3 59/2/3
f 66/2/3 60/2/3 65/2/3
f 69/5/3 68/5/3 67/5/3
f 70/5/3 68/5/3 69/5/3
f 71/5/3 68/5/3 70/5/3
f 72/5/3 68/5/3 71/5/3
f 73/5/3 68/5/3 72/5/3
f 78/5/3 68/5/3 73/5/3
f 79/5/3 77/5/3 76/5/3
f 79/5/3 78/5/3 77/5/3
f 79/5/3 75/5/3 74/5/3
f 79/5/3 76/5/3 75/5/3
f 80/5/3 68/5/3 78/5/3
f 80/5/3 78/5/3 79/5/3
f 81/5/4 82/5/4 84/5/4
f 82/1/4 83/1/4 85/1/4
f 84/5/4 82/5/4 85/5/4
f 84/3/4 85/3/4 86/3/4
f 85/1/4 83/1/4 87/1/4
f 86/3/4 85/3/4 87/3/4
f 87/1/4 83/1/4 88/1/4
f 93/2/5 90/2/5 89/2/5
f 94/6/5 91/6/5 90/6/5
f 94/2/5 90/2/5 93/2/5
f 95/2/5 92/2/5 91/2/5
f 95/6/5 91/6/5 94/6/5
f 96/2/5 92/2/5 95/2/5
f 97/6/5 95/6/5 94/6/5
f 97/5/5 96/5/5 95/5/5
f 98/5/5 96/5/5 97/5/5
f 99/5/5 94/5/5 93/5/5
f 99/6/5 97/6/5 94/6/5
f 100/3/5 98/3/5 97/3/5
f 100/6/5 97/6/5 99/6/5
f 101/5/5 99/5/5 93/5/5
f 102/3/5 100/3/5 99/3/5
f 102/5/5 99/5/5 101/5/5
f 103/3/5 98/3/5 100/3/5
f 103/3/5 100/3/5 102/3/5
f 106/1/5 105/1/5 104/1/5
f 107/1/5 105/1/5 106/1/5
f 108/2/6 109/2/6 112/2/6
f 112/2/6 109/2/6 113/2/6
f 110/2/6 111/2/6 114/2/6
f 114/2/6 111/2/6 115/2/6
f 116/4/6 117/4/6 118/4/6
f 118/4/6 117/4/6 119/4/6
f 120/1/6 121/1/6 122/1/6
f 122/1/6 121/1/6 123/1/6
