# MagicaVoxel @ Ephtracy

# group
g CounterCupboard2

# material
mtllib CounterCupboard2.mtl
usemtl palette

# normals
vn -1 0 0
vn 1 0 0
vn 0 0 1
vn 0 0 -1
vn 0 -1 0
vn 0 1 0

# texcoords
vt 0.853516 0.5
vt 0.916016 0.5
vt 0.947266 0.5
vt 0.951172 0.5
vt 0.978516 0.5

# verts
v -8 0 6
v -8 0 5
v -8 0 4
v -8 0 -7
v -8 1 6
v -8 1 5
v -8 15 7
v -8 15 5
v -8 15 4
v -8 15 -7
v -8 16 7
v -8 16 -7
v -3 10 6
v -3 10 5
v -3 11 6
v -3 11 5
v 2 10 6
v 2 10 5
v 2 11 6
v 2 11 5
v -2 10 6
v -2 10 5
v -2 11 6
v -2 11 5
v 3 10 6
v 3 10 5
v 3 11 6
v 3 11 5
v 8 0 6
v 8 0 5
v 8 0 4
v 8 0 -7
v 8 1 6
v 8 1 5
v 8 15 7
v 8 15 5
v 8 15 4
v 8 15 -7
v 8 16 7
v 8 16 -7
v -8 15 7
v -8 16 7
v 8 15 7
v 8 16 7
v -8 0 6
v -8 1 6
v -3 10 6
v -3 11 6
v -2 10 6
v -2 11 6
v 2 10 6
v 2 11 6
v 3 10 6
v 3 11 6
v 8 0 6
v 8 1 6
v -8 1 5
v -8 15 5
v -7 3 5
v -7 13 5
v -3 10 5
v -3 11 5
v -2 10 5
v -2 11 5
v -1 3 5
v -1 13 5
v 1 3 5
v 1 13 5
v 2 10 5
v 2 11 5
v 3 10 5
v 3 11 5
v 7 3 5
v 7 13 5
v 8 1 5
v 8 15 5
v -8 0 -7
v -8 15 -7
v -8 16 -7
v 8 0 -7
v 8 15 -7
v 8 16 -7
v -8 0 6
v 8 0 6
v -8 0 5
v 8 0 5
v -8 0 4
v 8 0 4
v -8 0 -7
v 8 0 -7
v -3 10 6
v -2 10 6
v 2 10 6
v 3 10 6
v -3 10 5
v -2 10 5
v 2 10 5
v 3 10 5
v -8 15 7
v 8 15 7
v -8 15 5
v 8 15 5
v -8 1 6
v 8 1 6
v -8 1 5
v 8 1 5
v -3 11 6
v -2 11 6
v 2 11 6
v 3 11 6
v -3 11 5
v -2 11 5
v 2 11 5
v 3 11 5
v -8 16 7
v 8 16 7
v -8 16 -7
v 8 16 -7

# faces
f 5/2/1 2/2/1 1/2/1
f 6/5/1 3/5/1 2/5/1
f 6/2/1 2/2/1 5/2/1
f 8/5/1 3/5/1 6/5/1
f 9/3/1 4/3/1 3/3/1
f 9/5/1 3/5/1 8/5/1
f 10/3/1 4/3/1 9/3/1
f 11/1/1 8/1/1 7/1/1
f 11/1/1 9/1/1 8/1/1
f 11/1/1 10/1/1 9/1/1
f 12/1/1 10/1/1 11/1/1
f 15/4/1 14/4/1 13/4/1
f 16/4/1 14/4/1 15/4/1
f 19/4/1 18/4/1 17/4/1
f 20/4/1 18/4/1 19/4/1
f 21/4/2 22/4/2 23/4/2
f 23/4/2 22/4/2 24/4/2
f 25/4/2 26/4/2 27/4/2
f 27/4/2 26/4/2 28/4/2
f 29/2/2 30/2/2 33/2/2
f 30/5/2 31/5/2 34/5/2
f 33/2/2 30/2/2 34/2/2
f 34/5/2 31/5/2 36/5/2
f 31/3/2 32/3/2 37/3/2
f 36/5/2 31/5/2 37/5/2
f 37/3/2 32/3/2 38/3/2
f 35/1/2 36/1/2 39/1/2
f 36/1/2 37/1/2 39/1/2
f 37/1/2 38/1/2 39/1/2
f 39/1/2 38/1/2 40/1/2
f 43/1/3 42/1/3 41/1/3
f 44/1/3 42/1/3 43/1/3
f 49/4/3 48/4/3 47/4/3
f 50/4/3 48/4/3 49/4/3
f 53/4/3 52/4/3 51/4/3
f 54/4/3 52/4/3 53/4/3
f 55/2/3 46/2/3 45/2/3
f 56/2/3 46/2/3 55/2/3
f 59/5/3 58/5/3 57/5/3
f 60/5/3 58/5/3 59/5/3
f 61/2/3 60/2/3 59/2/3
f 62/2/3 60/2/3 61/2/3
f 63/2/3 61/2/3 59/2/3
f 64/2/3 60/2/3 62/2/3
f 65/5/3 59/5/3 57/5/3
f 65/2/3 64/2/3 63/2/3
f 65/2/3 63/2/3 59/2/3
f 66/2/3 60/2/3 64/2/3
f 66/2/3 64/2/3 65/2/3
f 66/5/3 58/5/3 60/5/3
f 67/5/3 65/5/3 57/5/3
f 67/5/3 66/5/3 65/5/3
f 68/5/3 58/5/3 66/5/3
f 68/5/3 66/5/3 67/5/3
f 69/2/3 68/2/3 67/2/3
f 70/2/3 68/2/3 69/2/3
f 71/2/3 69/2/3 67/2/3
f 72/2/3 68/2/3 70/2/3
f 73/5/3 67/5/3 57/5/3
f 73/2/3 72/2/3 71/2/3
f 73/2/3 71/2/3 67/2/3
f 74/2/3 68/2/3 72/2/3
f 74/2/3 72/2/3 73/2/3
f 74/5/3 58/5/3 68/5/3
f 75/5/3 73/5/3 57/5/3
f 75/5/3 74/5/3 73/5/3
f 76/5/3 58/5/3 74/5/3
f 76/5/3 74/5/3 75/5/3
f 77/3/4 78/3/4 80/3/4
f 78/1/4 79/1/4 81/1/4
f 80/3/4 78/3/4 81/3/4
f 81/1/4 79/1/4 82/1/4
f 85/2/5 84/2/5 83/2/5
f 86/2/5 84/2/5 85/2/5
f 87/5/5 86/5/5 85/5/5
f 88/5/5 86/5/5 87/5/5
f 89/3/5 88/3/5 87/3/5
f 90/3/5 88/3/5 89/3/5
f 95/4/5 92/4/5 91/4/5
f 96/4/5 92/4/5 95/4/5
f 97/4/5 94/4/5 93/4/5
f 98/4/5 94/4/5 97/4/5
f 101/1/5 100/1/5 99/1/5
f 102/1/5 100/1/5 101/1/5
f 103/2/6 104/2/6 105/2/6
f 105/2/6 104/2/6 106/2/6
f 107/4/6 108/4/6 111/4/6
f 111/4/6 108/4/6 112/4/6
f 109/4/6 110/4/6 113/4/6
f 113/4/6 110/4/6 114/4/6
f 115/1/6 116/1/6 117/1/6
f 117/1/6 116/1/6 118/1/6
