# MagicaVoxel @ Ephtracy

# group
g CounterOpen

# material
mtllib CounterOpen.mtl
usemtl palette

# normals
vn -1 0 0
vn 1 0 0
vn 0 0 1
vn 0 0 -1
vn 0 -1 0
vn 0 1 0

# texcoords
vt 0.853516 0.5
vt 0.916016 0.5
vt 0.947266 0.5
vt 0.978516 0.5

# verts
v -8 0 -4
v -8 0 -5
v -8 0 -7
v -8 1 -4
v -8 1 -5
v -8 1 -6
v -8 13 5
v -8 13 -5
v -8 14 4
v -8 14 -6
v -8 15 7
v -8 15 5
v -8 15 4
v -8 15 -7
v -8 16 7
v -8 16 -7
v 8 0 -4
v 8 0 -5
v 8 0 -7
v 8 1 -4
v 8 1 -5
v 8 1 -6
v 8 13 5
v 8 13 -5
v 8 14 4
v 8 14 -6
v 8 15 7
v 8 15 5
v 8 15 4
v 8 15 -7
v 8 16 7
v 8 16 -7
v -8 15 7
v -8 16 7
v 8 15 7
v 8 16 7
v -8 13 5
v -8 15 5
v 8 13 5
v 8 15 5
v -8 0 -4
v -8 1 -4
v 8 0 -4
v 8 1 -4
v -8 1 -5
v -8 13 -5
v 8 1 -5
v 8 13 -5
v -8 0 -7
v -8 15 -7
v -8 16 -7
v 8 0 -7
v 8 15 -7
v 8 16 -7
v -8 0 -4
v 8 0 -4
v -8 0 -5
v 8 0 -5
v -8 0 -7
v 8 0 -7
v -8 13 5
v 8 13 5
v -8 13 -5
v 8 13 -5
v -8 15 7
v 8 15 7
v -8 15 5
v 8 15 5
v -8 1 -4
v 8 1 -4
v -8 1 -5
v 8 1 -5
v -8 16 7
v 8 16 7
v -8 16 -7
v 8 16 -7

# faces
f 4/2/1 2/2/1 1/2/1
f 5/3/1 3/3/1 2/3/1
f 5/2/1 2/2/1 4/2/1
f 6/3/1 3/3/1 5/3/1
f 8/4/1 6/4/1 5/4/1
f 9/4/1 8/4/1 7/4/1
f 10/3/1 3/3/1 6/3/1
f 10/4/1 8/4/1 9/4/1
f 10/4/1 6/4/1 8/4/1
f 12/4/1 9/4/1 7/4/1
f 13/3/1 10/3/1 9/3/1
f 13/4/1 9/4/1 12/4/1
f 14/3/1 3/3/1 10/3/1
f 14/3/1 10/3/1 13/3/1
f 15/1/1 13/1/1 12/1/1
f 15/1/1 12/1/1 11/1/1
f 15/1/1 14/1/1 13/1/1
f 16/1/1 14/1/1 15/1/1
f 17/2/2 18/2/2 20/2/2
f 18/3/2 19/3/2 21/3/2
f 20/2/2 18/2/2 21/2/2
f 21/3/2 19/3/2 22/3/2
f 21/4/2 22/4/2 24/4/2
f 23/4/2 24/4/2 25/4/2
f 22/3/2 19/3/2 26/3/2
f 25/4/2 24/4/2 26/4/2
f 24/4/2 22/4/2 26/4/2
f 23/4/2 25/4/2 28/4/2
f 25/3/2 26/3/2 29/3/2
f 28/4/2 25/4/2 29/4/2
f 26/3/2 19/3/2 30/3/2
f 29/3/2 26/3/2 30/3/2
f 28/1/2 29/1/2 31/1/2
f 27/1/2 28/1/2 31/1/2
f 29/1/2 30/1/2 31/1/2
f 31/1/2 30/1/2 32/1/2
f 35/1/3 34/1/3 33/1/3
f 36/1/3 34/1/3 35/1/3
f 39/4/3 38/4/3 37/4/3
f 40/4/3 38/4/3 39/4/3
f 43/2/3 42/2/3 41/2/3
f 44/2/3 42/2/3 43/2/3
f 47/4/3 46/4/3 45/4/3
f 48/4/3 46/4/3 47/4/3
f 49/3/4 50/3/4 52/3/4
f 50/1/4 51/1/4 53/1/4
f 52/3/4 50/3/4 53/3/4
f 53/1/4 51/1/4 54/1/4
f 57/2/5 56/2/5 55/2/5
f 58/2/5 56/2/5 57/2/5
f 59/3/5 58/3/5 57/3/5
f 60/3/5 58/3/5 59/3/5
f 63/4/5 62/4/5 61/4/5
f 64/4/5 62/4/5 63/4/5
f 67/1/5 66/1/5 65/1/5
f 68/1/5 66/1/5 67/1/5
f 69/2/6 70/2/6 71/2/6
f 71/2/6 70/2/6 72/2/6
f 73/1/6 74/1/6 75/1/6
f 75/1/6 74/1/6 76/1/6
