# MagicaVoxel @ Ephtracy

# group
g CounterCornerIn1

# material
mtllib CounterCornerIn1.mtl
usemtl palette

# normals
vn -1 0 0
vn 1 0 0
vn 0 0 1
vn 0 0 -1
vn 0 -1 0
vn 0 1 0

# texcoords
vt 0.853516 0.5
vt 0.916016 0.5
vt 0.947266 0.5
vt 0.978516 0.5

# verts
v -8 0 8
v -8 0 -8
v -8 15 8
v -8 15 -8
v -8 16 8
v -8 16 -8
v 4 1 8
v 4 1 7
v 4 15 8
v 4 15 7
v 5 1 7
v 5 1 6
v 5 15 7
v 5 15 6
v 6 0 8
v 6 0 7
v 6 1 8
v 6 1 7
v 6 1 6
v 6 1 5
v 6 15 6
v 6 15 5
v 7 0 7
v 7 0 6
v 7 1 7
v 7 1 6
v 7 1 5
v 7 1 4
v 7 15 8
v 7 15 7
v 7 15 5
v 7 15 4
v 7 16 8
v 7 16 7
v 8 0 6
v 8 0 4
v 8 0 3
v 8 0 -8
v 8 1 6
v 8 1 4
v 8 15 7
v 8 15 4
v 8 15 3
v 8 15 -8
v 8 16 7
v 8 16 -8
v -8 0 8
v -8 15 8
v -8 16 8
v 3 0 8
v 3 15 8
v 4 0 8
v 4 1 8
v 4 15 8
v 6 0 8
v 6 1 8
v 7 15 8
v 7 16 8
v 4 1 7
v 4 15 7
v 5 1 7
v 5 15 7
v 6 0 7
v 6 1 7
v 7 0 7
v 7 1 7
v 7 15 7
v 7 16 7
v 8 15 7
v 8 16 7
v 5 1 6
v 5 15 6
v 6 1 6
v 6 15 6
v 7 0 6
v 7 1 6
v 8 0 6
v 8 1 6
v 6 1 5
v 6 15 5
v 7 1 5
v 7 15 5
v 7 1 4
v 7 15 4
v 8 1 4
v 8 15 4
v -8 0 -8
v -8 15 -8
v -8 16 -8
v 8 0 -8
v 8 15 -8
v 8 16 -8
v -8 0 8
v 3 0 8
v 4 0 8
v 6 0 8
v 4 0 7
v 5 0 7
v 6 0 7
v 7 0 7
v 5 0 6
v 6 0 6
v 7 0 6
v 8 0 6
v 6 0 5
v 7 0 5
v 3 0 4
v 4 0 4
v 7 0 4
v 8 0 4
v 4 0 3
v 8 0 3
v -8 0 -8
v 8 0 -8
v 4 15 8
v 7 15 8
v 4 15 7
v 5 15 7
v 7 15 7
v 8 15 7
v 5 15 6
v 6 15 6
v 6 15 5
v 7 15 5
v 7 15 4
v 8 15 4
v 4 1 8
v 6 1 8
v 4 1 7
v 5 1 7
v 6 1 7
v 7 1 7
v 5 1 6
v 6 1 6
v 7 1 6
v 8 1 6
v 6 1 5
v 7 1 5
v 7 1 4
v 8 1 4
v -8 16 8
v 7 16 8
v 7 16 7
v 8 16 7
v -8 16 -8
v 8 16 -8

# faces
f 3/3/1 2/3/1 1/3/1
f 4/3/1 2/3/1 3/3/1
f 5/1/1 4/1/1 3/1/1
f 6/1/1 4/1/1 5/1/1
f 7/4/2 8/4/2 9/4/2
f 9/4/2 8/4/2 10/4/2
f 11/4/2 12/4/2 13/4/2
f 13/4/2 12/4/2 14/4/2
f 15/2/2 16/2/2 17/2/2
f 17/2/2 16/2/2 18/2/2
f 19/4/2 20/4/2 21/4/2
f 21/4/2 20/4/2 22/4/2
f 23/2/2 24/2/2 25/2/2
f 25/2/2 24/2/2 26/2/2
f 27/4/2 28/4/2 31/4/2
f 31/4/2 28/4/2 32/4/2
f 29/1/2 30/1/2 33/1/2
f 33/1/2 30/1/2 34/1/2
f 35/2/2 36/2/2 39/2/2
f 36/4/2 37/4/2 40/4/2
f 39/2/2 36/2/2 40/2/2
f 40/4/2 37/4/2 42/4/2
f 37/3/2 38/3/2 43/3/2
f 42/4/2 37/4/2 43/4/2
f 43/3/2 38/3/2 44/3/2
f 41/1/2 42/1/2 45/1/2
f 42/1/2 43/1/2 45/1/2
f 43/1/2 44/1/2 45/1/2
f 45/1/2 44/1/2 46/1/2
f 50/3/3 48/3/3 47/3/3
f 51/1/3 49/1/3 48/1/3
f 51/3/3 48/3/3 50/3/3
f 52/4/3 51/4/3 50/4/3
f 53/4/3 51/4/3 52/4/3
f 54/1/3 49/1/3 51/1/3
f 54/4/3 51/4/3 53/4/3
f 55/2/3 53/2/3 52/2/3
f 56/2/3 53/2/3 55/2/3
f 57/1/3 49/1/3 54/1/3
f 58/1/3 49/1/3 57/1/3
f 61/4/3 60/4/3 59/4/3
f 62/4/3 60/4/3 61/4/3
f 65/2/3 64/2/3 63/2/3
f 66/2/3 64/2/3 65/2/3
f 69/1/3 68/1/3 67/1/3
f 70/1/3 68/1/3 69/1/3
f 73/4/3 72/4/3 71/4/3
f 74/4/3 72/4/3 73/4/3
f 77/2/3 76/2/3 75/2/3
f 78/2/3 76/2/3 77/2/3
f 81/4/3 80/4/3 79/4/3
f 82/4/3 80/4/3 81/4/3
f 85/4/3 84/4/3 83/4/3
f 86/4/3 84/4/3 85/4/3
f 87/3/4 88/3/4 90/3/4
f 88/1/4 89/1/4 91/1/4
f 90/3/4 88/3/4 91/3/4
f 91/1/4 89/1/4 92/1/4
f 97/4/5 95/4/5 94/4/5
f 97/2/5 96/2/5 95/2/5
f 98/2/5 96/2/5 97/2/5
f 99/2/5 96/2/5 98/2/5
f 101/4/5 98/4/5 97/4/5
f 101/2/5 100/2/5 99/2/5
f 101/2/5 99/2/5 98/2/5
f 102/2/5 100/2/5 101/2/5
f 103/2/5 100/2/5 102/2/5
f 105/4/5 102/4/5 101/4/5
f 105/2/5 104/2/5 103/2/5
f 105/2/5 103/2/5 102/2/5
f 106/2/5 104/2/5 105/2/5
f 107/3/5 94/3/5 93/3/5
f 107/4/5 97/4/5 94/4/5
f 107/4/5 106/4/5 105/4/5
f 107/4/5 105/4/5 101/4/5
f 107/4/5 101/4/5 97/4/5
f 108/4/5 106/4/5 107/4/5
f 109/2/5 104/2/5 106/2/5
f 109/4/5 106/4/5 108/4/5
f 110/2/5 104/2/5 109/2/5
f 111/3/5 108/3/5 107/3/5
f 111/4/5 109/4/5 108/4/5
f 111/4/5 110/4/5 109/4/5
f 112/4/5 110/4/5 111/4/5
f 113/3/5 107/3/5 93/3/5
f 113/3/5 111/3/5 107/3/5
f 113/3/5 112/3/5 111/3/5
f 114/3/5 112/3/5 113/3/5
f 117/1/5 116/1/5 115/1/5
f 118/1/5 116/1/5 117/1/5
f 119/1/5 116/1/5 118/1/5
f 121/1/5 120/1/5 119/1/5
f 121/1/5 119/1/5 118/1/5
f 122/1/5 120/1/5 121/1/5
f 123/1/5 120/1/5 122/1/5
f 124/1/5 120/1/5 123/1/5
f 125/1/5 120/1/5 124/1/5
f 126/1/5 120/1/5 125/1/5
f 127/2/6 128/2/6 129/2/6
f 129/2/6 128/2/6 130/2/6
f 130/2/6 128/2/6 131/2/6
f 131/2/6 132/2/6 133/2/6
f 130/2/6 131/2/6 133/2/6
f 133/2/6 132/2/6 134/2/6
f 134/2/6 132/2/6 135/2/6
f 135/2/6 136/2/6 137/2/6
f 134/2/6 135/2/6 137/2/6
f 137/2/6 136/2/6 138/2/6
f 138/2/6 136/2/6 139/2/6
f 139/2/6 136/2/6 140/2/6
f 141/1/6 142/1/6 143/1/6
f 141/1/6 143/1/6 145/1/6
f 143/1/6 144/1/6 145/1/6
f 145/1/6 144/1/6 146/1/6
