# MagicaVoxel @ Ephtracy

# group
g Fish

# material
mtllib Fish.mtl
usemtl palette

# normals
vn -1 0 0
vn 1 0 0
vn 0 0 1
vn 0 0 -1
vn 0 -1 0
vn 0 1 0

# texcoords
vt 0.892578 0.5
vt 0.919922 0.5
vt 0.994141 0.5

# verts
v -4 0 -1
v -4 0 -4
v -4 1 -1
v -4 1 -4
v -3 0 -0
v -3 0 -1
v -3 1 -0
v -3 1 -1
v -2 0 1
v -2 0 -0
v -2 1 1
v -2 1 -0
v 0 0 2
v 0 0 1
v 0 1 2
v 0 1 1
v 1 0 4
v 1 0 3
v 1 0 2
v 1 1 4
v 1 1 3
v 1 1 2
v -1 0 -3
v -1 0 -4
v -1 1 -3
v -1 1 -4
v 0 0 -2
v 0 0 -3
v 0 1 -2
v 0 1 -3
v 1 0 -0
v 1 0 -2
v 1 1 -0
v 1 1 -2
v 2 0 4
v 2 0 3
v 2 0 1
v 2 0 -0
v 2 1 4
v 2 1 3
v 2 1 1
v 2 1 -0
v 3 0 3
v 3 0 2
v 3 1 3
v 3 1 2
v 4 0 2
v 4 0 1
v 4 1 2
v 4 1 1
v 1 0 4
v 1 1 4
v 2 0 4
v 2 1 4
v 2 0 3
v 2 1 3
v 3 0 3
v 3 1 3
v 0 0 2
v 0 1 2
v 1 0 2
v 1 1 2
v 3 0 2
v 3 1 2
v 4 0 2
v 4 1 2
v -2 0 1
v -2 1 1
v 0 0 1
v 0 1 1
v -3 0 -0
v -3 1 -0
v -2 0 -0
v -2 1 -0
v -4 0 -1
v -4 1 -1
v -3 0 -1
v -3 1 -1
v 2 0 1
v 2 1 1
v 3 0 1
v 3 1 1
v 4 0 1
v 4 1 1
v 1 0 -0
v 1 1 -0
v 2 0 -0
v 2 1 -0
v 0 0 -2
v 0 1 -2
v 1 0 -2
v 1 1 -2
v -1 0 -3
v -1 1 -3
v 0 0 -3
v 0 1 -3
v -4 0 -4
v -4 1 -4
v -1 0 -4
v -1 1 -4
v 1 0 4
v 2 0 4
v 1 0 3
v 2 0 3
v 3 0 3
v 0 0 2
v 1 0 2
v 2 0 2
v 3 0 2
v 4 0 2
v -2 0 1
v 0 0 1
v 2 0 1
v 3 0 1
v 4 0 1
v -3 0 -0
v -2 0 -0
v -1 0 -0
v 0 0 -0
v 1 0 -0
v 2 0 -0
v -4 0 -1
v -3 0 -1
v -2 0 -1
v -1 0 -1
v 0 0 -1
v -3 0 -2
v -2 0 -2
v 0 0 -2
v 1 0 -2
v -1 0 -3
v 0 0 -3
v -4 0 -4
v -1 0 -4
v 1 1 4
v 2 1 4
v 1 1 3
v 2 1 3
v 3 1 3
v 0 1 2
v 1 1 2
v 2 1 2
v 3 1 2
v 4 1 2
v -2 1 1
v 0 1 1
v 2 1 1
v 3 1 1
v 4 1 1
v -3 1 -0
v -2 1 -0
v -1 1 -0
v 0 1 -0
v 1 1 -0
v 2 1 -0
v -4 1 -1
v -3 1 -1
v -2 1 -1
v -1 1 -1
v 0 1 -1
v -3 1 -2
v -2 1 -2
v 0 1 -2
v 1 1 -2
v -1 1 -3
v 0 1 -3
v -4 1 -4
v -1 1 -4

# faces
f 3/1/1 2/1/1 1/1/1
f 4/1/1 2/1/1 3/1/1
f 7/1/1 6/1/1 5/1/1
f 8/1/1 6/1/1 7/1/1
f 11/1/1 10/1/1 9/1/1
f 12/1/1 10/1/1 11/1/1
f 15/1/1 14/1/1 13/1/1
f 16/1/1 14/1/1 15/1/1
f 20/2/1 18/2/1 17/2/1
f 21/1/1 19/1/1 18/1/1
f 21/2/1 18/2/1 20/2/1
f 22/1/1 19/1/1 21/1/1
f 23/1/2 24/1/2 25/1/2
f 25/1/2 24/1/2 26/1/2
f 27/1/2 28/1/2 29/1/2
f 29/1/2 28/1/2 30/1/2
f 31/1/2 32/1/2 33/1/2
f 33/1/2 32/1/2 34/1/2
f 35/2/2 36/2/2 39/2/2
f 39/2/2 36/2/2 40/2/2
f 37/1/2 38/1/2 41/1/2
f 41/1/2 38/1/2 42/1/2
f 43/2/2 44/2/2 45/2/2
f 45/2/2 44/2/2 46/2/2
f 47/2/2 48/2/2 49/2/2
f 49/2/2 48/2/2 50/2/2
f 53/2/3 52/2/3 51/2/3
f 54/2/3 52/2/3 53/2/3
f 57/2/3 56/2/3 55/2/3
f 58/2/3 56/2/3 57/2/3
f 61/1/3 60/1/3 59/1/3
f 62/1/3 60/1/3 61/1/3
f 65/2/3 64/2/3 63/2/3
f 66/2/3 64/2/3 65/2/3
f 69/1/3 68/1/3 67/1/3
f 70/1/3 68/1/3 69/1/3
f 73/1/3 72/1/3 71/1/3
f 74/1/3 72/1/3 73/1/3
f 77/1/3 76/1/3 75/1/3
f 78/1/3 76/1/3 77/1/3
f 79/1/4 80/1/4 81/1/4
f 81/1/4 80/1/4 82/1/4
f 81/2/4 82/2/4 83/2/4
f 83/2/4 82/2/4 84/2/4
f 85/1/4 86/1/4 87/1/4
f 87/1/4 86/1/4 88/1/4
f 89/1/4 90/1/4 91/1/4
f 91/1/4 90/1/4 92/1/4
f 93/1/4 94/1/4 95/1/4
f 95/1/4 94/1/4 96/1/4
f 97/1/4 98/1/4 99/1/4
f 99/1/4 98/1/4 100/1/4
f 103/2/5 102/2/5 101/2/5
f 104/2/5 102/2/5 103/2/5
f 107/1/5 104/1/5 103/1/5
f 108/2/5 105/2/5 104/2/5
f 108/1/5 104/1/5 107/1/5
f 109/2/5 105/2/5 108/2/5
f 112/1/5 107/1/5 106/1/5
f 112/1/5 108/1/5 107/1/5
f 112/1/5 109/1/5 108/1/5
f 113/1/5 109/1/5 112/1/5
f 114/2/5 110/2/5 109/2/5
f 114/1/5 109/1/5 113/1/5
f 115/2/5 110/2/5 114/2/5
f 117/1/5 113/1/5 112/1/5
f 117/1/5 112/1/5 111/1/5
f 118/1/5 113/1/5 117/1/5
f 119/1/5 113/1/5 118/1/5
f 120/1/5 113/1/5 119/1/5
f 121/1/5 113/1/5 120/1/5
f 123/1/5 117/1/5 116/1/5
f 123/1/5 118/1/5 117/1/5
f 124/1/5 118/1/5 123/1/5
f 125/2/5 119/2/5 118/2/5
f 125/1/5 118/1/5 124/1/5
f 126/1/5 120/1/5 119/1/5
f 126/2/5 119/2/5 125/2/5
f 127/3/5 124/3/5 123/3/5
f 127/1/5 123/1/5 122/1/5
f 128/1/5 125/1/5 124/1/5
f 128/3/5 124/3/5 127/3/5
f 128/1/5 126/1/5 125/1/5
f 129/1/5 120/1/5 126/1/5
f 129/1/5 126/1/5 128/1/5
f 130/1/5 120/1/5 129/1/5
f 131/1/5 128/1/5 127/1/5
f 131/1/5 129/1/5 128/1/5
f 132/1/5 129/1/5 131/1/5
f 133/1/5 127/1/5 122/1/5
f 133/1/5 131/1/5 127/1/5
f 134/1/5 131/1/5 133/1/5
f 135/2/6 136/2/6 137/2/6
f 137/2/6 136/2/6 138/2/6
f 137/1/6 138/1/6 141/1/6
f 138/2/6 139/2/6 142/2/6
f 141/1/6 138/1/6 142/1/6
f 142/2/6 139/2/6 143/2/6
f 140/1/6 141/1/6 146/1/6
f 141/1/6 142/1/6 146/1/6
f 142/1/6 143/1/6 146/1/6
f 146/1/6 143/1/6 147/1/6
f 143/2/6 144/2/6 148/2/6
f 147/1/6 143/1/6 148/1/6
f 148/2/6 144/2/6 149/2/6
f 146/1/6 147/1/6 151/1/6
f 145/1/6 146/1/6 151/1/6
f 151/1/6 147/1/6 152/1/6
f 152/1/6 147/1/6 153/1/6
f 153/1/6 147/1/6 154/1/6
f 154/1/6 147/1/6 155/1/6
f 150/1/6 151/1/6 157/1/6
f 151/1/6 152/1/6 157/1/6
f 157/1/6 152/1/6 158/1/6
f 152/2/6 153/2/6 159/2/6
f 158/1/6 152/1/6 159/1/6
f 153/1/6 154/1/6 160/1/6
f 159/2/6 153/2/6 160/2/6
f 157/3/6 158/3/6 161/3/6
f 156/1/6 157/1/6 161/1/6
f 158/1/6 159/1/6 162/1/6
f 161/3/6 158/3/6 162/3/6
f 159/1/6 160/1/6 162/1/6
f 160/1/6 154/1/6 163/1/6
f 162/1/6 160/1/6 163/1/6
f 163/1/6 154/1/6 164/1/6
f 161/1/6 162/1/6 165/1/6
f 162/1/6 163/1/6 165/1/6
f 165/1/6 163/1/6 166/1/6
f 156/1/6 161/1/6 167/1/6
f 161/1/6 165/1/6 167/1/6
f 167/1/6 165/1/6 168/1/6
