# MagicaVoxel @ Ephtracy

# group
g Pan

# material
mtllib Pan.mtl
usemtl palette

# normals
vn -1 0 0
vn 1 0 0
vn 0 0 1
vn 0 0 -1
vn 0 -1 0
vn 0 1 0

# texcoords
vt 0.962891 0.5
vt 0.994141 0.5

# verts
v -3 0 1
v -3 0 -3
v -3 1 1
v -3 1 -3
v -3 2 1
v -3 2 -3
v 0 1 -0
v 0 1 -2
v 0 2 -0
v 0 2 -2
v 1 1 2
v 1 1 1
v 1 2 1
v 1 3 2
v 1 3 1
v 2 2 3
v 2 2 2
v 2 3 3
v 2 3 2
v -2 1 -0
v -2 1 -2
v -2 2 -0
v -2 2 -2
v 1 0 1
v 1 0 -3
v 1 1 1
v 1 1 -0
v 1 1 -3
v 1 2 1
v 1 2 -0
v 1 2 -3
v 2 1 2
v 2 1 1
v 2 2 2
v 2 3 2
v 2 3 1
v 3 2 3
v 3 2 2
v 3 3 3
v 3 3 2
v 2 2 3
v 2 3 3
v 3 2 3
v 3 3 3
v 1 1 2
v 1 3 2
v 2 1 2
v 2 2 2
v 2 3 2
v -3 0 1
v -3 1 1
v -3 2 1
v 0 1 1
v 0 2 1
v 1 0 1
v 1 1 1
v 1 2 1
v -2 1 -2
v -2 2 -2
v 0 1 -2
v 0 2 -2
v 2 2 2
v 2 3 2
v 3 2 2
v 3 3 2
v 1 1 1
v 1 2 1
v 1 3 1
v 2 1 1
v 2 3 1
v -2 1 -0
v -2 2 -0
v 0 1 -0
v 0 2 -0
v -3 0 -3
v -3 1 -3
v -3 2 -3
v 1 0 -3
v 1 1 -3
v 1 2 -3
v -3 0 1
v 1 0 1
v -3 0 -3
v 1 0 -3
v 1 1 2
v 2 1 2
v 1 1 1
v 2 1 1
v 2 2 3
v 3 2 3
v 2 2 2
v 3 2 2
v -2 1 -0
v 0 1 -0
v -2 1 -2
v 0 1 -2
v -3 2 1
v 0 2 1
v 1 2 1
v -2 2 -0
v 0 2 -0
v 1 2 -0
v -2 2 -2
v 0 2 -2
v -3 2 -3
v 1 2 -3
v 2 3 3
v 3 3 3
v 1 3 2
v 2 3 2
v 3 3 2
v 1 3 1
v 2 3 1

# faces
f 3/2/1 2/2/1 1/2/1
f 4/2/1 2/2/1 3/2/1
f 5/1/1 4/1/1 3/1/1
f 6/1/1 4/1/1 5/1/1
f 9/1/1 8/1/1 7/1/1
f 10/1/1 8/1/1 9/1/1
f 13/2/1 12/2/1 11/2/1
f 14/2/1 13/2/1 11/2/1
f 15/2/1 13/2/1 14/2/1
f 18/2/1 17/2/1 16/2/1
f 19/2/1 17/2/1 18/2/1
f 20/1/2 21/1/2 22/1/2
f 22/1/2 21/1/2 23/1/2
f 24/2/2 25/2/2 26/2/2
f 26/2/2 25/2/2 27/2/2
f 27/2/2 25/2/2 28/2/2
f 26/2/2 27/2/2 29/2/2
f 27/1/2 28/1/2 30/1/2
f 29/2/2 27/2/2 30/2/2
f 30/1/2 28/1/2 31/1/2
f 32/2/2 33/2/2 34/2/2
f 34/2/2 33/2/2 35/2/2
f 35/2/2 33/2/2 36/2/2
f 37/2/2 38/2/2 39/2/2
f 39/2/2 38/2/2 40/2/2
f 43/2/3 42/2/3 41/2/3
f 44/2/3 42/2/3 43/2/3
f 47/2/3 46/2/3 45/2/3
f 48/2/3 46/2/3 47/2/3
f 49/2/3 46/2/3 48/2/3
f 53/2/3 51/2/3 50/2/3
f 53/1/3 52/1/3 51/1/3
f 54/1/3 52/1/3 53/1/3
f 55/2/3 53/2/3 50/2/3
f 55/2/3 54/2/3 53/2/3
f 56/2/3 54/2/3 55/2/3
f 57/2/3 54/2/3 56/2/3
f 60/1/3 59/1/3 58/1/3
f 61/1/3 59/1/3 60/1/3
f 62/2/4 63/2/4 64/2/4
f 64/2/4 63/2/4 65/2/4
f 66/2/4 67/2/4 69/2/4
f 67/2/4 68/2/4 69/2/4
f 69/2/4 68/2/4 70/2/4
f 71/1/4 72/1/4 73/1/4
f 73/1/4 72/1/4 74/1/4
f 75/2/4 76/2/4 78/2/4
f 76/1/4 77/1/4 79/1/4
f 78/2/4 76/2/4 79/2/4
f 79/1/4 77/1/4 80/1/4
f 83/2/5 82/2/5 81/2/5
f 84/2/5 82/2/5 83/2/5
f 87/2/5 86/2/5 85/2/5
f 88/2/5 86/2/5 87/2/5
f 91/2/5 90/2/5 89/2/5
f 92/2/5 90/2/5 91/2/5
f 93/2/6 94/2/6 95/2/6
f 95/2/6 94/2/6 96/2/6
f 97/1/6 98/1/6 100/1/6
f 98/2/6 99/2/6 101/2/6
f 100/1/6 98/1/6 101/1/6
f 101/2/6 99/2/6 102/2/6
f 97/1/6 100/1/6 103/1/6
f 101/1/6 102/1/6 104/1/6
f 97/1/6 103/1/6 105/1/6
f 103/1/6 104/1/6 105/1/6
f 104/1/6 102/1/6 106/1/6
f 105/1/6 104/1/6 106/1/6
f 107/2/6 108/2/6 110/2/6
f 110/2/6 108/2/6 111/2/6
f 109/2/6 110/2/6 112/2/6
f 112/2/6 110/2/6 113/2/6
