# MagicaVoxel @ Ephtracy

# group
g RecyclingBin

# material
mtllib RecyclingBin.mtl
usemtl palette

# normals
vn -1 0 0
vn 1 0 0
vn 0 0 1
vn 0 0 -1
vn 0 -1 0
vn 0 1 0

# texcoords
vt 0.904297 0.5
vt 0.951172 0.5
vt 0.962891 0.5
vt 0.966797 0.5
vt 0.982422 0.5
vt 0.990234 0.5

# verts
v -4 0 3
v -4 0 -3
v -4 4 3
v -4 4 -3
v -4 5 3
v -4 5 -3
v -2 2 2
v -2 2 -0
v -2 3 2
v -2 3 -0
v 0 2 1
v 0 2 -0
v 0 3 1
v 0 3 -0
v 1 2 -0
v 1 2 -1
v 1 3 -0
v 1 3 -1
v 3 2 2
v 3 2 -2
v 3 4 2
v 3 4 -2
v 3 5 2
v 3 5 -2
v -3 2 2
v -3 2 -0
v -3 4 2
v -3 4 -0
v -3 4 -2
v -3 5 2
v -3 5 -2
v -2 3 -1
v -2 3 -2
v -2 4 -1
v -2 4 -2
v -1 2 1
v -1 2 -0
v -1 2 -2
v -1 3 1
v -1 3 -0
v -1 3 -1
v -1 3 -2
v -1 4 -0
v -1 4 -1
v 0 2 2
v 0 2 1
v 0 3 2
v 0 3 1
v 2 2 1
v 2 2 -1
v 2 3 1
v 2 3 -1
v 4 0 3
v 4 0 -3
v 4 4 3
v 4 4 -3
v 4 5 3
v 4 5 -3
v -4 0 3
v -4 4 3
v -4 5 3
v -2 0 3
v -2 2 3
v -1 0 3
v -1 2 3
v -1 3 3
v -1 4 3
v 0 0 3
v 0 1 3
v 1 0 3
v 1 1 3
v 1 2 3
v 1 3 3
v 1 4 3
v 2 1 3
v 2 2 3
v 4 0 3
v 4 4 3
v 4 5 3
v 0 2 1
v 0 3 1
v 1 2 1
v 1 3 1
v 2 2 1
v 2 3 1
v -3 2 -0
v -3 4 -0
v -2 2 -0
v -2 3 -0
v -1 3 -0
v -1 4 -0
v -3 4 -2
v -3 5 -2
v -2 3 -2
v -2 4 -2
v -1 2 -2
v -1 3 -2
v 3 2 -2
v 3 4 -2
v 3 5 -2
v -3 2 2
v -3 4 2
v -3 5 2
v -2 2 2
v -2 3 2
v -1 3 2
v -1 4 2
v 0 2 2
v 0 3 2
v 1 3 2
v 1 4 2
v 3 2 2
v 3 4 2
v 3 5 2
v -1 2 1
v -1 3 1
v 0 2 1
v 0 3 1
v 0 2 -0
v 0 3 -0
v 1 2 -0
v 1 3 -0
v -2 3 -1
v -2 4 -1
v -1 3 -1
v -1 4 -1
v 1 2 -1
v 1 3 -1
v 2 2 -1
v 2 3 -1
v -4 0 -3
v -4 4 -3
v -4 5 -3
v 4 0 -3
v 4 4 -3
v 4 5 -3
v -4 0 3
v -2 0 3
v -1 0 3
v 0 0 3
v 1 0 3
v 4 0 3
v -2 0 2
v -1 0 2
v 0 0 2
v 1 0 2
v -4 0 -3
v 4 0 -3
v -3 2 2
v -2 2 2
v 0 2 2
v 3 2 2
v -1 2 1
v 0 2 1
v 1 2 1
v 2 2 1
v -3 2 -0
v -2 2 -0
v -1 2 -0
v 0 2 -0
v 1 2 -0
v 1 2 -1
v 2 2 -1
v -1 2 -2
v 3 2 -2
v -2 3 2
v -1 3 2
v 0 3 2
v -1 3 1
v 0 3 1
v 1 3 1
v 2 3 1
v -2 3 -0
v -1 3 -0
v 0 3 -0
v 1 3 -0
v -2 3 -1
v -1 3 -1
v 1 3 -1
v 2 3 -1
v -2 3 -2
v -1 3 -2
v -3 4 -0
v -1 4 -0
v -2 4 -1
v -1 4 -1
v -3 4 -2
v -2 4 -2
v -4 5 3
v 4 5 3
v -3 5 2
v 3 5 2
v -3 5 -2
v 3 5 -2
v -4 5 -3
v 4 5 -3

# faces
f 3/4/1 2/4/1 1/4/1
f 4/4/1 2/4/1 3/4/1
f 5/2/1 4/2/1 3/2/1
f 6/2/1 4/2/1 5/2/1
f 9/1/1 8/1/1 7/1/1
f 10/1/1 8/1/1 9/1/1
f 13/1/1 12/1/1 11/1/1
f 14/1/1 12/1/1 13/1/1
f 17/3/1 16/3/1 15/3/1
f 18/3/1 16/3/1 17/3/1
f 21/4/1 20/4/1 19/4/1
f 22/4/1 20/4/1 21/4/1
f 23/2/1 22/2/1 21/2/1
f 24/2/1 22/2/1 23/2/1
f 25/4/2 26/4/2 27/4/2
f 27/4/2 26/4/2 28/4/2
f 27/2/2 28/2/2 30/2/2
f 28/2/2 29/2/2 30/2/2
f 30/2/2 29/2/2 31/2/2
f 32/6/2 33/6/2 34/6/2
f 34/6/2 33/6/2 35/6/2
f 36/1/2 37/1/2 39/1/2
f 37/6/2 38/6/2 40/6/2
f 39/1/2 37/1/2 40/1/2
f 40/6/2 38/6/2 41/6/2
f 41/6/2 38/6/2 42/6/2
f 40/6/2 41/6/2 43/6/2
f 43/6/2 41/6/2 44/6/2
f 45/1/2 46/1/2 47/1/2
f 47/1/2 46/1/2 48/1/2
f 49/3/2 50/3/2 51/3/2
f 51/3/2 50/3/2 52/3/2
f 53/4/2 54/4/2 55/4/2
f 55/4/2 54/4/2 56/4/2
f 55/2/2 56/2/2 57/2/2
f 57/2/2 56/2/2 58/2/2
f 62/4/3 60/4/3 59/4/3
f 63/4/3 60/4/3 62/4/3
f 64/5/3 63/5/3 62/5/3
f 65/4/3 60/4/3 63/4/3
f 65/5/3 63/5/3 64/5/3
f 66/4/3 60/4/3 65/4/3
f 67/2/3 61/2/3 60/2/3
f 67/4/3 60/4/3 66/4/3
f 68/4/3 66/4/3 65/4/3
f 68/4/3 65/4/3 64/4/3
f 69/4/3 66/4/3 68/4/3
f 70/5/3 69/5/3 68/5/3
f 71/4/3 66/4/3 69/4/3
f 71/5/3 69/5/3 70/5/3
f 72/4/3 66/4/3 71/4/3
f 73/5/3 67/5/3 66/5/3
f 73/4/3 66/4/3 72/4/3
f 74/2/3 61/2/3 67/2/3
f 74/5/3 67/5/3 73/5/3
f 75/5/3 72/5/3 71/5/3
f 75/4/3 71/4/3 70/4/3
f 76/4/3 73/4/3 72/4/3
f 76/5/3 72/5/3 75/5/3
f 76/4/3 74/4/3 73/4/3
f 77/4/3 75/4/3 70/4/3
f 77/4/3 76/4/3 75/4/3
f 78/4/3 74/4/3 76/4/3
f 78/4/3 76/4/3 77/4/3
f 78/2/3 61/2/3 74/2/3
f 79/2/3 61/2/3 78/2/3
f 82/1/3 81/1/3 80/1/3
f 83/1/3 81/1/3 82/1/3
f 84/3/3 83/3/3 82/3/3
f 85/3/3 83/3/3 84/3/3
f 88/6/3 87/6/3 86/6/3
f 89/6/3 87/6/3 88/6/3
f 90/6/3 87/6/3 89/6/3
f 91/6/3 87/6/3 90/6/3
f 95/2/3 93/2/3 92/2/3
f 97/4/3 95/4/3 94/4/3
f 98/4/3 97/4/3 96/4/3
f 99/2/3 93/2/3 95/2/3
f 99/4/3 97/4/3 98/4/3
f 99/4/3 95/4/3 97/4/3
f 100/2/3 93/2/3 99/2/3
f 101/4/4 102/4/4 104/4/4
f 104/4/4 102/4/4 105/4/4
f 105/4/4 102/4/4 106/4/4
f 102/2/4 103/2/4 107/2/4
f 106/4/4 102/4/4 107/4/4
f 106/5/4 107/5/4 109/5/4
f 109/5/4 107/5/4 110/5/4
f 108/4/4 109/4/4 110/4/4
f 107/2/4 103/2/4 111/2/4
f 110/5/4 107/5/4 111/5/4
f 108/4/4 110/4/4 112/4/4
f 110/4/4 111/4/4 112/4/4
f 111/2/4 103/2/4 113/2/4
f 112/4/4 111/4/4 113/4/4
f 113/2/4 103/2/4 114/2/4
f 115/1/4 116/1/4 117/1/4
f 117/1/4 116/1/4 118/1/4
f 119/1/4 120/1/4 121/1/4
f 121/1/4 120/1/4 122/1/4
f 123/6/4 124/6/4 125/6/4
f 125/6/4 124/6/4 126/6/4
f 127/3/4 128/3/4 129/3/4
f 129/3/4 128/3/4 130/3/4
f 131/4/4 132/4/4 134/4/4
f 132/2/4 133/2/4 135/2/4
f 134/4/4 132/4/4 135/4/4
f 135/2/4 133/2/4 136/2/4
f 143/4/5 138/4/5 137/4/5
f 143/5/5 139/5/5 138/5/5
f 144/4/5 140/4/5 139/4/5
f 144/5/5 139/5/5 143/5/5
f 145/5/5 141/5/5 140/5/5
f 145/4/5 140/4/5 144/4/5
f 146/4/5 142/4/5 141/4/5
f 146/5/5 141/5/5 145/5/5
f 147/4/5 145/4/5 144/4/5
f 147/4/5 144/4/5 143/4/5
f 147/4/5 146/4/5 145/4/5
f 147/4/5 143/4/5 137/4/5
f 148/4/5 142/4/5 146/4/5
f 148/4/5 146/4/5 147/4/5
f 151/4/6 152/4/6 154/4/6
f 154/4/6 152/4/6 155/4/6
f 155/4/6 152/4/6 156/4/6
f 149/4/6 150/4/6 157/4/6
f 157/4/6 150/4/6 158/4/6
f 153/4/6 154/4/6 159/4/6
f 159/4/6 154/4/6 160/4/6
f 160/4/6 161/4/6 162/4/6
f 159/4/6 160/4/6 162/4/6
f 156/4/6 152/4/6 163/4/6
f 159/4/6 162/4/6 164/4/6
f 162/4/6 163/4/6 164/4/6
f 163/4/6 152/4/6 165/4/6
f 164/4/6 163/4/6 165/4/6
f 166/1/6 167/1/6 169/1/6
f 167/1/6 168/1/6 169/1/6
f 169/1/6 168/1/6 170/1/6
f 166/1/6 169/1/6 173/1/6
f 173/1/6 169/1/6 174/1/6
f 170/1/6 171/1/6 175/1/6
f 171/3/6 172/3/6 176/3/6
f 175/1/6 171/1/6 176/1/6
f 176/3/6 172/3/6 179/3/6
f 179/3/6 172/3/6 180/3/6
f 177/6/6 178/6/6 181/6/6
f 181/6/6 178/6/6 182/6/6
f 183/6/6 184/6/6 185/6/6
f 185/6/6 184/6/6 186/6/6
f 183/6/6 185/6/6 187/6/6
f 187/6/6 185/6/6 188/6/6
f 189/2/6 190/2/6 191/2/6
f 191/2/6 190/2/6 192/2/6
f 189/2/6 191/2/6 193/2/6
f 192/2/6 190/2/6 194/2/6
f 189/2/6 193/2/6 195/2/6
f 193/2/6 194/2/6 195/2/6
f 194/2/6 190/2/6 196/2/6
f 195/2/6 194/2/6 196/2/6
