# MagicaVoxel @ Ephtracy

# group
g WineBottle

# material
mtllib WineBottle.mtl
usemtl palette

# normals
vn -1 0 0
vn 1 0 0
vn 0 0 1
vn 0 0 -1
vn 0 -1 0
vn 0 1 0

# texcoords
vt 0.923828 0.5
vt 0.947266 0.5
vt 0.982422 0.5

# verts
v -1.5 0 0.5
v -1.5 0 -0.5
v -1.5 5 0.5
v -1.5 5 -0.5
v -0.5 0 1.5
v -0.5 0 0.5
v -0.5 0 -0.5
v -0.5 0 -1.5
v -0.5 2 1.5
v -0.5 2 0.5
v -0.5 3 1.5
v -0.5 3 0.5
v -0.5 5 1.5
v -0.5 5 0.5
v -0.5 5 -0.5
v -0.5 5 -1.5
v -0.5 7 0.5
v -0.5 7 -0.5
v -0.5 8 0.5
v -0.5 8 -0.5
v 0.5 0 1.5
v 0.5 0 0.5
v 0.5 0 -0.5
v 0.5 0 -1.5
v 0.5 2 1.5
v 0.5 2 0.5
v 0.5 2 -0.5
v 0.5 3 1.5
v 0.5 3 0.5
v 0.5 3 -0.5
v 0.5 5 1.5
v 0.5 5 0.5
v 0.5 5 -0.5
v 0.5 5 -1.5
v 0.5 7 0.5
v 0.5 7 -0.5
v 0.5 8 0.5
v 0.5 8 -0.5
v 1.5 0 0.5
v 1.5 0 -0.5
v 1.5 2 0.5
v 1.5 2 -0.5
v 1.5 3 0.5
v 1.5 3 -0.5
v 1.5 5 0.5
v 1.5 5 -0.5
v -0.5 0 1.5
v -0.5 2 1.5
v -0.5 3 1.5
v -0.5 5 1.5
v 0.5 0 1.5
v 0.5 2 1.5
v 0.5 3 1.5
v 0.5 5 1.5
v -1.5 0 0.5
v -1.5 5 0.5
v -0.5 0 0.5
v -0.5 2 0.5
v -0.5 3 0.5
v -0.5 5 0.5
v -0.5 7 0.5
v -0.5 8 0.5
v 0.5 0 0.5
v 0.5 2 0.5
v 0.5 3 0.5
v 0.5 5 0.5
v 0.5 7 0.5
v 0.5 8 0.5
v 1.5 0 0.5
v 1.5 2 0.5
v 1.5 3 0.5
v 1.5 5 0.5
v -1.5 0 -0.5
v -1.5 5 -0.5
v -0.5 0 -0.5
v -0.5 5 -0.5
v -0.5 7 -0.5
v -0.5 8 -0.5
v 0.5 0 -0.5
v 0.5 2 -0.5
v 0.5 3 -0.5
v 0.5 5 -0.5
v 0.5 7 -0.5
v 0.5 8 -0.5
v 1.5 0 -0.5
v 1.5 2 -0.5
v 1.5 3 -0.5
v 1.5 5 -0.5
v -0.5 0 -1.5
v -0.5 5 -1.5
v 0.5 0 -1.5
v 0.5 5 -1.5
v -0.5 0 1.5
v 0.5 0 1.5
v -1.5 0 0.5
v -0.5 0 0.5
v 0.5 0 0.5
v 1.5 0 0.5
v -1.5 0 -0.5
v -0.5 0 -0.5
v 0.5 0 -0.5
v 1.5 0 -0.5
v -0.5 0 -1.5
v 0.5 0 -1.5
v -0.5 5 1.5
v 0.5 5 1.5
v -1.5 5 0.5
v -0.5 5 0.5
v 0.5 5 0.5
v 1.5 5 0.5
v -1.5 5 -0.5
v -0.5 5 -0.5
v 0.5 5 -0.5
v 1.5 5 -0.5
v -0.5 5 -1.5
v 0.5 5 -1.5
v -0.5 8 0.5
v 0.5 8 0.5
v -0.5 8 -0.5
v 0.5 8 -0.5

# faces
f 3/1/1 2/1/1 1/1/1
f 4/1/1 2/1/1 3/1/1
f 9/1/1 6/1/1 5/1/1
f 10/1/1 6/1/1 9/1/1
f 11/3/1 10/3/1 9/3/1
f 12/3/1 10/3/1 11/3/1
f 13/1/1 12/1/1 11/1/1
f 14/1/1 12/1/1 13/1/1
f 15/1/1 8/1/1 7/1/1
f 16/1/1 8/1/1 15/1/1
f 17/1/1 15/1/1 14/1/1
f 18/1/1 15/1/1 17/1/1
f 19/2/1 18/2/1 17/2/1
f 20/2/1 18/2/1 19/2/1
f 21/1/2 22/1/2 25/1/2
f 25/1/2 22/1/2 26/1/2
f 23/1/2 24/1/2 27/1/2
f 25/3/2 26/3/2 28/3/2
f 28/3/2 26/3/2 29/3/2
f 27/1/2 24/1/2 30/1/2
f 28/1/2 29/1/2 31/1/2
f 31/1/2 29/1/2 32/1/2
f 30/1/2 24/1/2 33/1/2
f 33/1/2 24/1/2 34/1/2
f 32/1/2 33/1/2 35/1/2
f 35/1/2 33/1/2 36/1/2
f 35/2/2 36/2/2 37/2/2
f 37/2/2 36/2/2 38/2/2
f 39/1/2 40/1/2 41/1/2
f 41/1/2 40/1/2 42/1/2
f 41/3/2 42/3/2 43/3/2
f 43/3/2 42/3/2 44/3/2
f 43/1/2 44/1/2 45/1/2
f 45/1/2 44/1/2 46/1/2
f 51/1/3 48/1/3 47/1/3
f 52/3/3 49/3/3 48/3/3
f 52/1/3 48/1/3 51/1/3
f 53/1/3 50/1/3 49/1/3
f 53/3/3 49/3/3 52/3/3
f 54/1/3 50/1/3 53/1/3
f 57/1/3 56/1/3 55/1/3
f 58/1/3 56/1/3 57/1/3
f 59/1/3 56/1/3 58/1/3
f 60/1/3 56/1/3 59/1/3
f 66/1/3 61/1/3 60/1/3
f 67/2/3 62/2/3 61/2/3
f 67/1/3 61/1/3 66/1/3
f 68/2/3 62/2/3 67/2/3
f 69/1/3 64/1/3 63/1/3
f 70/3/3 65/3/3 64/3/3
f 70/1/3 64/1/3 69/1/3
f 71/1/3 66/1/3 65/1/3
f 71/3/3 65/3/3 70/3/3
f 72/1/3 66/1/3 71/1/3
f 73/1/4 74/1/4 75/1/4
f 75/1/4 74/1/4 76/1/4
f 76/1/4 77/1/4 82/1/4
f 77/2/4 78/2/4 83/2/4
f 82/1/4 77/1/4 83/1/4
f 83/2/4 78/2/4 84/2/4
f 79/1/4 80/1/4 85/1/4
f 80/3/4 81/3/4 86/3/4
f 85/1/4 80/1/4 86/1/4
f 81/1/4 82/1/4 87/1/4
f 86/3/4 81/3/4 87/3/4
f 87/1/4 82/1/4 88/1/4
f 89/1/4 90/1/4 91/1/4
f 91/1/4 90/1/4 92/1/4
f 96/1/5 94/1/5 93/1/5
f 97/1/5 94/1/5 96/1/5
f 99/1/5 96/1/5 95/1/5
f 99/1/5 98/1/5 97/1/5
f 99/1/5 97/1/5 96/1/5
f 100/1/5 98/1/5 99/1/5
f 101/1/5 98/1/5 100/1/5
f 102/1/5 98/1/5 101/1/5
f 103/1/5 101/1/5 100/1/5
f 104/1/5 101/1/5 103/1/5
f 105/1/6 106/1/6 108/1/6
f 108/1/6 106/1/6 109/1/6
f 107/1/6 108/1/6 111/1/6
f 111/1/6 108/1/6 112/1/6
f 109/1/6 110/1/6 113/1/6
f 113/1/6 110/1/6 114/1/6
f 112/1/6 113/1/6 115/1/6
f 115/1/6 113/1/6 116/1/6
f 117/2/6 118/2/6 119/2/6
f 119/2/6 118/2/6 120/2/6
