# MagicaVoxel @ Ephtracy

# group
o 

# material
mtllib bread.mtl
usemtl palette

# normals
vn -1 0 0
vn 1 0 0
vn 0 0 1
vn 0 0 -1
vn 0 -1 0
vn 0 1 0

# texcoords
vt 0.0332031 0.5
vt 0.306641 0.5
vt 0.396484 0.5

# verts
v 0 5.1 -1.3
v 0 5.1 -2.3
v 0 5.9 -1.3
v 0 5.9 -2.3
v 0.1 2 -1.4
v 0.1 2 -2.2
v 0.1 5.1 -1.4
v 0.1 5.1 -2.2
v 0.2 2 -1.3
v 0.2 2 -1.4
v 0.2 2 -2.2
v 0.2 2 -2.3
v 0.2 5.1 -1.3
v 0.2 5.1 -1.4
v 0.2 5.1 -2.2
v 0.2 5.1 -2.3
v 0.2 5.9 -1.3
v 0.2 5.9 -2.3
v 0.2 6 -1.3
v 0.2 6 -2.3
v 3.7 2 -1.3
v 3.7 2 -1.4
v 3.7 2 -2.2
v 3.7 2 -2.3
v 3.7 5.1 -1.3
v 3.7 5.1 -1.4
v 3.7 5.1 -2.2
v 3.7 5.1 -2.3
v 3.8 2 -1.4
v 3.8 2 -2.2
v 3.8 5.1 -1.4
v 3.8 5.1 -2.2
v 3.8 5.9 -1.3
v 3.8 5.9 -2.3
v 3.8 6 -1.3
v 3.8 6 -2.3
v 3.9 5.1 -1.3
v 3.9 5.1 -2.3
v 3.9 5.9 -1.3
v 3.9 5.9 -2.3
v 0 5.1 -1.3
v 0 5.9 -1.3
v 0.1 5.1 -1.3
v 0.1 5.8 -1.3
v 0.2 2 -1.3
v 0.2 5.1 -1.3
v 0.2 5.9 -1.3
v 0.2 6 -1.3
v 0.3 2.1 -1.3
v 0.3 5.1 -1.3
v 3.6 2.1 -1.3
v 3.6 5.1 -1.3
v 3.7 2 -1.3
v 3.7 5.1 -1.3
v 3.8 5.1 -1.3
v 3.8 5.8 -1.3
v 3.8 5.9 -1.3
v 3.8 6 -1.3
v 3.9 5.1 -1.3
v 3.9 5.9 -1.3
v 0.1 2 -1.4
v 0.1 5.1 -1.4
v 0.2 2 -1.4
v 0.2 5.1 -1.4
v 3.7 2 -1.4
v 3.7 5.1 -1.4
v 3.8 2 -1.4
v 3.8 5.1 -1.4
v 0.1 2 -2.2
v 0.1 5.1 -2.2
v 0.2 2 -2.2
v 0.2 5.1 -2.2
v 3.7 2 -2.2
v 3.7 5.1 -2.2
v 3.8 2 -2.2
v 3.8 5.1 -2.2
v 0 5.1 -2.3
v 0 5.9 -2.3
v 0.1 5.1 -2.3
v 0.1 5.8 -2.3
v 0.2 2 -2.3
v 0.2 5.1 -2.3
v 0.2 5.9 -2.3
v 0.2 6 -2.3
v 0.3 2.1 -2.3
v 0.3 5.1 -2.3
v 3.6 2.1 -2.3
v 3.6 5.1 -2.3
v 3.7 2 -2.3
v 3.7 5.1 -2.3
v 3.7 5.8 -2.3
v 3.8 5.9 -2.3
v 3.8 6 -2.3
v 3.9 5.1 -2.3
v 3.9 5.9 -2.3
v 0.2 2 -1.3
v 3.7 2 -1.3
v 0.1 2 -1.4
v 0.2 2 -1.4
v 3.7 2 -1.4
v 3.8 2 -1.4
v 0.1 2 -2.2
v 0.2 2 -2.2
v 3.7 2 -2.2
v 3.8 2 -2.2
v 0.2 2 -2.3
v 3.7 2 -2.3
v 0 5.1 -1.3
v 0.1 5.1 -1.3
v 0.2 5.1 -1.3
v 3.7 5.1 -1.3
v 3.8 5.1 -1.3
v 3.9 5.1 -1.3
v 0.1 5.1 -1.4
v 0.2 5.1 -1.4
v 3.7 5.1 -1.4
v 3.8 5.1 -1.4
v 0.1 5.1 -2.2
v 0.2 5.1 -2.2
v 3.7 5.1 -2.2
v 3.8 5.1 -2.2
v 0 5.1 -2.3
v 0.1 5.1 -2.3
v 0.2 5.1 -2.3
v 3.7 5.1 -2.3
v 3.9 5.1 -2.3
v 0 5.9 -1.3
v 0.2 5.9 -1.3
v 3.8 5.9 -1.3
v 3.9 5.9 -1.3
v 0 5.9 -2.3
v 0.2 5.9 -2.3
v 3.8 5.9 -2.3
v 3.9 5.9 -2.3
v 0.2 6 -1.3
v 3.8 6 -1.3
v 0.2 6 -2.3
v 3.8 6 -2.3

# faces
f 3/3/1 2/3/1 1/3/1
f 4/3/1 2/3/1 3/3/1
f 7/3/1 6/3/1 5/3/1
f 8/3/1 6/3/1 7/3/1
f 13/3/1 10/3/1 9/3/1
f 14/3/1 10/3/1 13/3/1
f 15/3/1 12/3/1 11/3/1
f 16/3/1 12/3/1 15/3/1
f 19/3/1 18/3/1 17/3/1
f 20/3/1 18/3/1 19/3/1
f 21/3/2 22/3/2 25/3/2
f 25/3/2 22/3/2 26/3/2
f 23/3/2 24/3/2 27/3/2
f 27/3/2 24/3/2 28/3/2
f 29/3/2 30/3/2 31/3/2
f 31/3/2 30/3/2 32/3/2
f 33/3/2 34/3/2 35/3/2
f 35/3/2 34/3/2 36/3/2
f 37/3/2 38/3/2 39/3/2
f 39/3/2 38/3/2 40/3/2
f 43/3/3 42/3/3 41/3/3
f 44/3/3 42/3/3 43/3/3
f 46/1/3 44/1/3 43/1/3
f 47/3/3 42/3/3 44/3/3
f 49/3/3 46/3/3 45/3/3
f 50/1/3 44/1/3 46/1/3
f 50/3/3 46/3/3 49/3/3
f 51/3/3 49/3/3 45/3/3
f 51/1/3 50/1/3 49/1/3
f 52/1/3 44/1/3 50/1/3
f 52/1/3 50/1/3 51/1/3
f 53/3/3 51/3/3 45/3/3
f 53/3/3 52/3/3 51/3/3
f 54/1/3 44/1/3 52/1/3
f 54/3/3 52/3/3 53/3/3
f 55/1/3 44/1/3 54/1/3
f 56/3/3 48/3/3 47/3/3
f 56/1/3 44/1/3 55/1/3
f 56/3/3 47/3/3 44/3/3
f 57/3/3 48/3/3 56/3/3
f 58/3/3 48/3/3 57/3/3
f 59/3/3 56/3/3 55/3/3
f 59/3/3 57/3/3 56/3/3
f 60/3/3 57/3/3 59/3/3
f 63/3/3 62/3/3 61/3/3
f 64/3/3 62/3/3 63/3/3
f 67/3/3 66/3/3 65/3/3
f 68/3/3 66/3/3 67/3/3
f 69/3/4 70/3/4 71/3/4
f 71/3/4 70/3/4 72/3/4
f 73/3/4 74/3/4 75/3/4
f 75/3/4 74/3/4 76/3/4
f 77/3/4 78/3/4 79/3/4
f 79/3/4 78/3/4 80/3/4
f 79/1/4 80/1/4 82/1/4
f 80/3/4 78/3/4 83/3/4
f 81/3/4 82/3/4 85/3/4
f 82/1/4 80/1/4 86/1/4
f 85/3/4 82/3/4 86/3/4
f 81/3/4 85/3/4 87/3/4
f 85/1/4 86/1/4 87/1/4
f 86/1/4 80/1/4 88/1/4
f 87/1/4 86/1/4 88/1/4
f 81/3/4 87/3/4 89/3/4
f 87/3/4 88/3/4 89/3/4
f 88/1/4 80/1/4 90/1/4
f 89/3/4 88/3/4 90/3/4
f 83/3/4 84/3/4 91/3/4
f 90/1/4 80/1/4 91/1/4
f 80/3/4 83/3/4 91/3/4
f 91/3/4 84/3/4 92/3/4
f 90/3/4 91/3/4 92/3/4
f 92/3/4 84/3/4 93/3/4
f 90/3/4 92/3/4 94/3/4
f 94/3/4 92/3/4 95/3/4
f 99/3/5 97/3/5 96/3/5
f 100/3/5 97/3/5 99/3/5
f 102/3/5 99/3/5 98/3/5
f 102/3/5 101/3/5 100/3/5
f 102/3/5 100/3/5 99/3/5
f 103/3/5 101/3/5 102/3/5
f 104/3/5 101/3/5 103/3/5
f 105/3/5 101/3/5 104/3/5
f 106/3/5 104/3/5 103/3/5
f 107/3/5 104/3/5 106/3/5
f 114/3/5 109/3/5 108/3/5
f 114/1/5 110/1/5 109/1/5
f 115/1/5 110/1/5 114/1/5
f 116/1/5 112/1/5 111/1/5
f 117/3/5 113/3/5 112/3/5
f 117/1/5 112/1/5 116/1/5
f 118/3/5 114/3/5 108/3/5
f 121/3/5 113/3/5 117/3/5
f 122/3/5 118/3/5 108/3/5
f 123/1/5 119/1/5 118/1/5
f 123/3/5 118/3/5 122/3/5
f 124/1/5 119/1/5 123/1/5
f 125/3/5 121/3/5 120/3/5
f 126/3/5 113/3/5 121/3/5
f 126/3/5 121/3/5 125/3/5
f 127/3/6 128/3/6 131/3/6
f 131/3/6 128/3/6 132/3/6
f 129/3/6 130/3/6 133/3/6
f 133/3/6 130/3/6 134/3/6
f 135/3/6 136/3/6 137/3/6
f 137/3/6 136/3/6 138/3/6
