# MagicaVoxel @ Ephtracy

# group
g GarbageCan

# material
mtllib GarbageCan.mtl
usemtl palette

# normals
vn -1 0 0
vn 1 0 0
vn 0 0 1
vn 0 0 -1
vn 0 -1 0
vn 0 1 0

# texcoords
vt 0.861328 0.5
vt 0.884766 0.5
vt 0.888672 0.5
vt 0.904297 0.5
vt 0.919922 0.5
vt 0.951172 0.5
vt 0.955078 0.5
vt 0.958984 0.5
vt 0.966797 0.5
vt 0.986328 0.5
vt 0.990234 0.5
vt 0.994141 0.5

# verts
v -4 0 2
v -4 0 -2
v -4 11 2
v -4 11 -2
v -4 12 2
v -4 12 -2
v -3 0 3
v -3 0 2
v -3 0 -2
v -3 0 -3
v -3 11 3
v -3 11 2
v -3 11 -2
v -3 11 -3
v -3 12 3
v -3 12 2
v -3 12 -2
v -3 12 -3
v -2 0 4
v -2 0 3
v -2 0 -3
v -2 0 -4
v -2 11 4
v -2 11 3
v -2 11 -3
v -2 11 -4
v -2 12 4
v -2 12 3
v -2 12 -3
v -2 12 -4
v -1 6 -0
v -1 6 -1
v -1 7 -0
v -1 7 -1
v 0 6 2
v 0 6 1
v 0 7 2
v 0 7 1
v 0 7 -2
v 0 7 -3
v 0 8 -2
v 0 8 -3
v 2 5 -0
v 2 5 -1
v 2 6 1
v 2 6 -0
v 2 6 -1
v 2 6 -2
v 2 6 -3
v 2 7 3
v 2 7 2
v 2 7 1
v 2 7 -0
v 2 7 -1
v 2 7 -2
v 2 11 3
v 2 11 2
v 2 11 -2
v 2 11 -3
v 2 12 3
v 2 12 2
v 2 12 -2
v 2 12 -3
v 3 6 2
v 3 6 1
v 3 6 -0
v 3 6 -1
v 3 7 1
v 3 7 -0
v 3 7 -1
v 3 7 -2
v 3 11 2
v 3 11 -2
v 3 12 2
v 3 12 -2
v -3 7 1
v -3 7 -1
v -3 8 -1
v -3 8 -2
v -3 9 2
v -3 9 1
v -3 11 2
v -3 11 -2
v -3 12 2
v -3 12 -2
v -2 6 -0
v -2 6 -1
v -2 7 -0
v -2 7 -1
v -2 8 -2
v -2 8 -3
v -2 9 3
v -2 9 2
v -2 11 3
v -2 11 2
v -2 11 -2
v -2 11 -3
v -2 12 3
v -2 12 2
v -2 12 -2
v -2 12 -3
v -1 6 2
v -1 6 1
v -1 6 -0
v -1 7 1
v -1 7 -0
v -1 7 -1
v -1 7 -3
v -1 8 3
v -1 8 2
v -1 8 -1
v -1 8 -3
v -1 9 3
v -1 9 1
v 0 7 3
v 0 7 2
v 0 8 3
v 0 8 2
v 1 5 -0
v 1 5 -1
v 1 6 -0
v 1 6 -1
v 1 6 -2
v 1 6 -3
v 1 7 -0
v 1 7 -2
v 1 8 -2
v 1 8 -3
v 2 0 4
v 2 0 3
v 2 0 -3
v 2 0 -4
v 2 6 2
v 2 6 1
v 2 7 2
v 2 7 1
v 2 11 4
v 2 11 3
v 2 11 -3
v 2 11 -4
v 2 12 4
v 2 12 3
v 2 12 -3
v 2 12 -4
v 3 0 3
v 3 0 2
v 3 0 -2
v 3 0 -3
v 3 11 3
v 3 11 2
v 3 11 -2
v 3 11 -3
v 3 12 3
v 3 12 2
v 3 12 -2
v 3 12 -3
v 4 0 2
v 4 0 -2
v 4 11 2
v 4 11 -2
v 4 12 2
v 4 12 -2
v -2 0 4
v -2 11 4
v -2 12 4
v 2 0 4
v 2 11 4
v 2 12 4
v -3 0 3
v -3 11 3
v -3 12 3
v -2 0 3
v -2 11 3
v -2 12 3
v 2 0 3
v 2 11 3
v 2 12 3
v 3 0 3
v 3 11 3
v 3 12 3
v -4 0 2
v -4 11 2
v -4 12 2
v -3 0 2
v -3 11 2
v -3 12 2
v 3 0 2
v 3 11 2
v 3 12 2
v 4 0 2
v 4 11 2
v 4 12 2
v 2 6 1
v 2 7 1
v 3 6 1
v 3 7 1
v -1 6 -0
v -1 7 -0
v 1 6 -0
v 1 7 -0
v -3 7 -1
v -3 8 -1
v -2 6 -1
v -2 7 -1
v -1 6 -1
v -1 7 -1
v -1 8 -1
v 1 5 -1
v 1 6 -1
v 2 5 -1
v 2 6 -1
v 2 7 -1
v 3 6 -1
v 3 7 -1
v -3 8 -2
v -3 11 -2
v -3 12 -2
v -2 8 -2
v -2 11 -2
v -2 12 -2
v 0 7 -2
v 0 8 -2
v 1 7 -2
v 1 8 -2
v 2 7 -2
v 2 11 -2
v 2 12 -2
v 3 7 -2
v 3 11 -2
v 3 12 -2
v -2 8 -3
v -2 11 -3
v -2 12 -3
v -1 7 -3
v -1 8 -3
v 0 7 -3
v 0 8 -3
v 1 6 -3
v 1 8 -3
v 2 6 -3
v 2 11 -3
v 2 12 -3
v -2 9 3
v -2 11 3
v -2 12 3
v -1 8 3
v -1 9 3
v 0 7 3
v 0 8 3
v 1 7 3
v 2 7 3
v 2 11 3
v 2 12 3
v -3 9 2
v -3 11 2
v -3 12 2
v -2 9 2
v -2 11 2
v -2 12 2
v -1 6 2
v -1 8 2
v 0 6 2
v 0 7 2
v 0 8 2
v 2 6 2
v 2 7 2
v 2 11 2
v 2 12 2
v 3 6 2
v 3 11 2
v 3 12 2
v -3 7 1
v -3 9 1
v -1 7 1
v -1 9 1
v 0 6 1
v 0 7 1
v 2 6 1
v 2 7 1
v -2 6 -0
v -2 7 -0
v -1 6 -0
v -1 7 -0
v 1 5 -0
v 1 6 -0
v 2 5 -0
v 2 6 -0
v 2 7 -0
v 3 6 -0
v 3 7 -0
v -4 0 -2
v -4 11 -2
v -4 12 -2
v -3 0 -2
v -3 11 -2
v -3 12 -2
v 3 0 -2
v 3 11 -2
v 3 12 -2
v 4 0 -2
v 4 11 -2
v 4 12 -2
v -3 0 -3
v -3 11 -3
v -3 12 -3
v -2 0 -3
v -2 11 -3
v -2 12 -3
v 2 0 -3
v 2 11 -3
v 2 12 -3
v 3 0 -3
v 3 11 -3
v 3 12 -3
v -2 0 -4
v -2 11 -4
v -2 12 -4
v 2 0 -4
v 2 11 -4
v 2 12 -4
v -2 0 4
v 2 0 4
v -3 0 3
v -2 0 3
v 2 0 3
v 3 0 3
v -4 0 2
v -3 0 2
v -2 0 2
v 2 0 2
v 3 0 2
v 4 0 2
v -4 0 -2
v -3 0 -2
v -2 0 -2
v 2 0 -2
v 3 0 -2
v 4 0 -2
v -3 0 -3
v -2 0 -3
v 2 0 -3
v 3 0 -3
v -2 0 -4
v 2 0 -4
v 1 5 -0
v 2 5 -0
v 1 5 -1
v 2 5 -1
v -1 6 2
v 0 6 2
v 2 6 2
v 3 6 2
v -1 6 1
v 0 6 1
v 2 6 1
v 3 6 1
v -2 6 -0
v -1 6 -0
v 1 6 -0
v 2 6 -0
v 3 6 -0
v -2 6 -1
v -1 6 -1
v 1 6 -1
v 2 6 -1
v 3 6 -1
v 1 6 -2
v 2 6 -2
v 1 6 -3
v 2 6 -3
v 0 7 3
v 1 7 3
v 2 7 3
v 0 7 2
v 1 7 2
v 2 7 2
v -3 7 1
v -1 7 1
v 0 7 1
v 2 7 1
v 3 7 1
v -2 7 -0
v -1 7 -0
v 1 7 -0
v 2 7 -0
v 3 7 -0
v -3 7 -1
v -2 7 -1
v -1 7 -1
v 2 7 -1
v 3 7 -1
v 0 7 -2
v 1 7 -2
v 2 7 -2
v 3 7 -2
v -1 7 -3
v 0 7 -3
v -1 8 3
v 0 8 3
v -1 8 2
v 0 8 2
v -3 8 -1
v -1 8 -1
v -3 8 -2
v -2 8 -2
v 0 8 -2
v 1 8 -2
v -2 8 -3
v -1 8 -3
v 0 8 -3
v 1 8 -3
v -2 9 3
v -1 9 3
v -3 9 2
v -2 9 2
v -3 9 1
v -1 9 1
v -2 12 4
v 2 12 4
v -3 12 3
v -2 12 3
v 2 12 3
v 3 12 3
v -4 12 2
v -3 12 2
v -2 12 2
v 2 12 2
v 3 12 2
v 4 12 2
v -4 12 -2
v -3 12 -2
v -2 12 -2
v 2 12 -2
v 3 12 -2
v 4 12 -2
v -3 12 -3
v -2 12 -3
v 2 12 -3
v 3 12 -3
v -2 12 -4
v 2 12 -4

# faces
f 3/6/1 2/6/1 1/6/1
f 4/6/1 2/6/1 3/6/1
f 5/5/1 4/5/1 3/5/1
f 6/5/1 4/5/1 5/5/1
f 11/6/1 8/6/1 7/6/1
f 12/6/1 8/6/1 11/6/1
f 13/6/1 10/6/1 9/6/1
f 14/6/1 10/6/1 13/6/1
f 15/5/1 12/5/1 11/5/1
f 16/5/1 12/5/1 15/5/1
f 17/5/1 14/5/1 13/5/1
f 18/5/1 14/5/1 17/5/1
f 23/6/1 20/6/1 19/6/1
f 24/6/1 20/6/1 23/6/1
f 25/6/1 22/6/1 21/6/1
f 26/6/1 22/6/1 25/6/1
f 27/5/1 24/5/1 23/5/1
f 28/5/1 24/5/1 27/5/1
f 29/5/1 26/5/1 25/5/1
f 30/5/1 26/5/1 29/5/1
f 33/9/1 32/9/1 31/9/1
f 34/9/1 32/9/1 33/9/1
f 37/12/1 36/12/1 35/12/1
f 38/12/1 36/12/1 37/12/1
f 41/10/1 40/10/1 39/10/1
f 42/10/1 40/10/1 41/10/1
f 46/2/1 44/2/1 43/2/1
f 47/2/1 44/2/1 46/2/1
f 52/12/1 46/12/1 45/12/1
f 53/12/1 46/12/1 52/12/1
f 54/1/1 48/1/1 47/1/1
f 55/6/1 49/6/1 48/6/1
f 55/1/1 48/1/1 54/1/1
f 56/6/1 51/6/1 50/6/1
f 57/6/1 51/6/1 56/6/1
f 58/6/1 49/6/1 55/6/1
f 59/6/1 49/6/1 58/6/1
f 60/5/1 57/5/1 56/5/1
f 61/5/1 57/5/1 60/5/1
f 62/5/1 59/5/1 58/5/1
f 63/5/1 59/5/1 62/5/1
f 68/6/1 65/6/1 64/6/1
f 69/6/1 67/6/1 66/6/1
f 70/6/1 67/6/1 69/6/1
f 72/6/1 68/6/1 64/6/1
f 72/6/1 71/6/1 70/6/1
f 72/6/1 70/6/1 69/6/1
f 72/6/1 69/6/1 68/6/1
f 73/6/1 71/6/1 72/6/1
f 74/5/1 73/5/1 72/5/1
f 75/5/1 73/5/1 74/5/1
f 76/6/2 77/6/2 78/6/2
f 76/6/2 78/6/2 81/6/2
f 78/6/2 79/6/2 81/6/2
f 80/6/2 81/6/2 82/6/2
f 81/6/2 79/6/2 83/6/2
f 82/6/2 81/6/2 83/6/2
f 82/5/2 83/5/2 84/5/2
f 84/5/2 83/5/2 85/5/2
f 86/11/2 87/11/2 88/11/2
f 88/11/2 87/11/2 89/11/2
f 92/6/2 93/6/2 94/6/2
f 94/6/2 93/6/2 95/6/2
f 90/6/2 91/6/2 96/6/2
f 96/6/2 91/6/2 97/6/2
f 94/5/2 95/5/2 98/5/2
f 98/5/2 95/5/2 99/5/2
f 96/5/2 97/5/2 100/5/2
f 100/5/2 97/5/2 101/5/2
f 102/4/2 103/4/2 105/4/2
f 103/11/2 104/11/2 105/11/2
f 105/11/2 104/11/2 106/11/2
f 102/4/2 105/4/2 110/4/2
f 107/7/2 108/7/2 111/7/2
f 111/7/2 108/7/2 112/7/2
f 109/4/2 110/4/2 113/4/2
f 110/4/2 105/4/2 114/4/2
f 113/4/2 110/4/2 114/4/2
f 115/8/2 116/8/2 117/8/2
f 117/8/2 116/8/2 118/8/2
f 119/2/2 120/2/2 121/2/2
f 121/2/2 120/2/2 122/2/2
f 121/9/2 122/9/2 125/9/2
f 122/9/2 123/9/2 125/9/2
f 123/10/2 124/10/2 126/10/2
f 125/9/2 123/9/2 126/9/2
f 126/10/2 124/10/2 127/10/2
f 127/10/2 124/10/2 128/10/2
f 133/12/2 134/12/2 135/12/2
f 135/12/2 134/12/2 136/12/2
f 129/6/2 130/6/2 137/6/2
f 137/6/2 130/6/2 138/6/2
f 131/6/2 132/6/2 139/6/2
f 139/6/2 132/6/2 140/6/2
f 137/5/2 138/5/2 141/5/2
f 141/5/2 138/5/2 142/5/2
f 139/5/2 140/5/2 143/5/2
f 143/5/2 140/5/2 144/5/2
f 145/6/2 146/6/2 149/6/2
f 149/6/2 146/6/2 150/6/2
f 147/6/2 148/6/2 151/6/2
f 151/6/2 148/6/2 152/6/2
f 149/5/2 150/5/2 153/5/2
f 153/5/2 150/5/2 154/5/2
f 151/5/2 152/5/2 155/5/2
f 155/5/2 152/5/2 156/5/2
f 157/6/2 158/6/2 159/6/2
f 159/6/2 158/6/2 160/6/2
f 159/5/2 160/5/2 161/5/2
f 161/5/2 160/5/2 162/5/2
f 166/6/3 164/6/3 163/6/3
f 167/5/3 165/5/3 164/5/3
f 167/6/3 164/6/3 166/6/3
f 168/5/3 165/5/3 167/5/3
f 172/6/3 170/6/3 169/6/3
f 173/5/3 171/5/3 170/5/3
f 173/6/3 170/6/3 172/6/3
f 174/5/3 171/5/3 173/5/3
f 178/6/3 176/6/3 175/6/3
f 179/5/3 177/5/3 176/5/3
f 179/6/3 176/6/3 178/6/3
f 180/5/3 177/5/3 179/5/3
f 184/6/3 182/6/3 181/6/3
f 185/5/3 183/5/3 182/5/3
f 185/6/3 182/6/3 184/6/3
f 186/5/3 183/5/3 185/5/3
f 190/6/3 188/6/3 187/6/3
f 191/5/3 189/5/3 188/5/3
f 191/6/3 188/6/3 190/6/3
f 192/5/3 189/5/3 191/5/3
f 195/12/3 194/12/3 193/12/3
f 196/12/3 194/12/3 195/12/3
f 199/9/3 198/9/3 197/9/3
f 200/9/3 198/9/3 199/9/3
f 204/7/3 202/7/3 201/7/3
f 205/7/3 204/7/3 203/7/3
f 206/7/3 202/7/3 204/7/3
f 206/7/3 204/7/3 205/7/3
f 207/7/3 202/7/3 206/7/3
f 210/2/3 209/2/3 208/2/3
f 211/2/3 209/2/3 210/2/3
f 213/1/3 212/1/3 211/1/3
f 214/1/3 212/1/3 213/1/3
f 218/6/3 216/6/3 215/6/3
f 219/5/3 217/5/3 216/5/3
f 219/6/3 216/6/3 218/6/3
f 220/5/3 217/5/3 219/5/3
f 223/10/3 222/10/3 221/10/3
f 224/10/3 222/10/3 223/10/3
f 228/6/3 226/6/3 225/6/3
f 229/5/3 227/5/3 226/5/3
f 229/6/3 226/6/3 228/6/3
f 230/5/3 227/5/3 229/5/3
f 235/6/3 232/6/3 231/6/3
f 236/6/3 235/6/3 234/6/3
f 237/6/3 232/6/3 235/6/3
f 237/6/3 235/6/3 236/6/3
f 239/6/3 232/6/3 237/6/3
f 240/6/3 239/6/3 238/6/3
f 241/5/3 233/5/3 232/5/3
f 241/6/3 239/6/3 240/6/3
f 241/6/3 232/6/3 239/6/3
f 242/5/3 233/5/3 241/5/3
f 243/6/4 244/6/4 247/6/4
f 246/6/4 247/6/4 249/6/4
f 248/6/4 249/6/4 250/6/4
f 250/6/4 249/6/4 251/6/4
f 244/5/4 245/5/4 252/5/4
f 251/6/4 249/6/4 252/6/4
f 247/6/4 244/6/4 252/6/4
f 249/6/4 247/6/4 252/6/4
f 252/5/4 245/5/4 253/5/4
f 254/6/4 255/6/4 257/6/4
f 255/5/4 256/5/4 258/5/4
f 257/6/4 255/6/4 258/6/4
f 258/5/4 256/5/4 259/5/4
f 260/8/4 261/8/4 262/8/4
f 262/8/4 261/8/4 263/8/4
f 263/8/4 261/8/4 264/8/4
f 265/6/4 266/6/4 269/6/4
f 266/6/4 267/6/4 269/6/4
f 267/5/4 268/5/4 270/5/4
f 269/6/4 267/6/4 270/6/4
f 270/5/4 268/5/4 271/5/4
f 272/4/4 273/4/4 274/4/4
f 274/4/4 273/4/4 275/4/4
f 276/12/4 277/12/4 278/12/4
f 278/12/4 277/12/4 279/12/4
f 280/11/4 281/11/4 282/11/4
f 282/11/4 281/11/4 283/11/4
f 284/2/4 285/2/4 286/2/4
f 286/2/4 285/2/4 287/2/4
f 287/12/4 288/12/4 289/12/4
f 289/12/4 288/12/4 290/12/4
f 291/6/4 292/6/4 294/6/4
f 292/5/4 293/5/4 295/5/4
f 294/6/4 292/6/4 295/6/4
f 295/5/4 293/5/4 296/5/4
f 297/6/4 298/6/4 300/6/4
f 298/5/4 299/5/4 301/5/4
f 300/6/4 298/6/4 301/6/4
f 301/5/4 299/5/4 302/5/4
f 303/6/4 304/6/4 306/6/4
f 304/5/4 305/5/4 307/5/4
f 306/6/4 304/6/4 307/6/4
f 307/5/4 305/5/4 308/5/4
f 309/6/4 310/6/4 312/6/4
f 310/5/4 311/5/4 313/5/4
f 312/6/4 310/6/4 313/6/4
f 313/5/4 311/5/4 314/5/4
f 315/6/4 316/6/4 318/6/4
f 316/5/4 317/5/4 319/5/4
f 318/6/4 316/6/4 319/6/4
f 319/5/4 317/5/4 320/5/4
f 324/6/5 322/6/5 321/6/5
f 325/6/5 322/6/5 324/6/5
f 328/6/5 324/6/5 323/6/5
f 329/3/5 325/3/5 324/3/5
f 329/6/5 324/6/5 328/6/5
f 330/6/5 326/6/5 325/6/5
f 330/3/5 325/3/5 329/3/5
f 331/6/5 326/6/5 330/6/5
f 333/6/5 328/6/5 327/6/5
f 334/3/5 329/3/5 328/3/5
f 334/6/5 328/6/5 333/6/5
f 334/3/5 330/3/5 329/3/5
f 334/3/5 331/3/5 330/3/5
f 335/3/5 331/3/5 334/3/5
f 336/3/5 331/3/5 335/3/5
f 337/6/5 332/6/5 331/6/5
f 337/3/5 331/3/5 336/3/5
f 338/6/5 332/6/5 337/6/5
f 339/6/5 335/6/5 334/6/5
f 340/3/5 336/3/5 335/3/5
f 340/6/5 335/6/5 339/6/5
f 341/6/5 337/6/5 336/6/5
f 341/3/5 336/3/5 340/3/5
f 342/6/5 337/6/5 341/6/5
f 343/6/5 341/6/5 340/6/5
f 344/6/5 341/6/5 343/6/5
f 345/2/6 346/2/6 347/2/6
f 347/2/6 346/2/6 348/2/6
f 349/2/6 350/2/6 353/2/6
f 353/2/6 350/2/6 354/2/6
f 351/2/6 352/2/6 355/2/6
f 355/2/6 352/2/6 356/2/6
f 353/2/6 354/2/6 358/2/6
f 354/2/6 355/2/6 358/2/6
f 358/2/6 355/2/6 359/2/6
f 359/2/6 355/2/6 360/2/6
f 357/2/6 358/2/6 362/2/6
f 362/2/6 358/2/6 363/2/6
f 360/2/6 361/2/6 365/2/6
f 365/2/6 361/2/6 366/2/6
f 364/2/6 365/2/6 367/2/6
f 367/2/6 365/2/6 368/2/6
f 367/2/6 368/2/6 369/2/6
f 369/2/6 368/2/6 370/2/6
f 371/8/6 372/8/6 374/8/6
f 372/12/6 373/12/6 375/12/6
f 374/8/6 372/8/6 375/8/6
f 375/12/6 373/12/6 376/12/6
f 374/12/6 375/12/6 379/12/6
f 375/12/6 376/12/6 379/12/6
f 379/12/6 376/12/6 380/12/6
f 377/11/6 378/11/6 382/11/6
f 382/11/6 378/11/6 383/11/6
f 380/12/6 381/12/6 385/12/6
f 385/12/6 381/12/6 386/12/6
f 377/11/6 382/11/6 387/11/6
f 387/11/6 382/11/6 388/11/6
f 383/9/6 384/9/6 389/9/6
f 389/9/6 384/9/6 392/9/6
f 392/9/6 384/9/6 393/9/6
f 390/1/6 391/1/6 394/1/6
f 394/1/6 391/1/6 395/1/6
f 389/9/6 392/9/6 396/9/6
f 396/9/6 392/9/6 397/9/6
f 398/8/6 399/8/6 400/8/6
f 400/8/6 399/8/6 401/8/6
f 402/7/6 403/7/6 404/7/6
f 404/7/6 403/7/6 405/7/6
f 405/7/6 403/7/6 408/7/6
f 408/7/6 403/7/6 409/7/6
f 406/10/6 407/10/6 410/10/6
f 410/10/6 407/10/6 411/10/6
f 412/4/6 413/4/6 415/4/6
f 414/4/6 415/4/6 416/4/6
f 415/4/6 413/4/6 417/4/6
f 416/4/6 415/4/6 417/4/6
f 418/5/6 419/5/6 421/5/6
f 421/5/6 419/5/6 422/5/6
f 420/5/6 421/5/6 425/5/6
f 425/5/6 421/5/6 426/5/6
f 422/5/6 423/5/6 427/5/6
f 427/5/6 423/5/6 428/5/6
f 424/5/6 425/5/6 430/5/6
f 430/5/6 425/5/6 431/5/6
f 428/5/6 429/5/6 434/5/6
f 434/5/6 429/5/6 435/5/6
f 431/5/6 432/5/6 436/5/6
f 436/5/6 432/5/6 437/5/6
f 433/5/6 434/5/6 438/5/6
f 438/5/6 434/5/6 439/5/6
f 437/5/6 438/5/6 440/5/6
f 440/5/6 438/5/6 441/5/6
