# MagicaVoxel @ Ephtracy

# group
g KnifeSmall

# material
mtllib KnifeSmall.mtl
usemtl palette

# normals
vn -1 0 0
vn 1 0 0
vn 0 0 1
vn 0 0 -1
vn 0 -1 0
vn 0 1 0

# texcoords
vt 0.888672 0.5
vt 0.919922 0.5
vt 0.994141 0.5

# verts
v -3.5 0 -0
v -3.5 0 -1
v -3.5 1 -0
v -3.5 1 -1
v -2.5 0 1
v -2.5 0 -0
v -2.5 1 1
v -2.5 1 -0
v 1.5 0 1
v 1.5 0 -0
v 1.5 1 1
v 1.5 1 -0
v 3.5 0 -0
v 3.5 0 -1
v 3.5 1 -0
v 3.5 1 -1
v -2.5 0 1
v -2.5 1 1
v 1.5 0 1
v 1.5 1 1
v -3.5 0 -0
v -3.5 1 -0
v -2.5 0 -0
v -2.5 1 -0
v 1.5 0 -0
v 1.5 1 -0
v 3.5 0 -0
v 3.5 1 -0
v -3.5 0 -1
v -3.5 1 -1
v 1.5 0 -1
v 1.5 1 -1
v 3.5 0 -1
v 3.5 1 -1
v -2.5 0 1
v 1.5 0 1
v -3.5 0 -0
v -2.5 0 -0
v 1.5 0 -0
v 3.5 0 -0
v -3.5 0 -1
v 1.5 0 -1
v 3.5 0 -1
v -2.5 1 1
v 1.5 1 1
v -3.5 1 -0
v -2.5 1 -0
v 1.5 1 -0
v 3.5 1 -0
v -3.5 1 -1
v 1.5 1 -1
v 3.5 1 -1

# faces
f 3/2/1 2/2/1 1/2/1
f 4/2/1 2/2/1 3/2/1
f 7/1/1 6/1/1 5/1/1
f 8/1/1 6/1/1 7/1/1
f 9/1/2 10/1/2 11/1/2
f 11/1/2 10/1/2 12/1/2
f 13/3/2 14/3/2 15/3/2
f 15/3/2 14/3/2 16/3/2
f 19/1/3 18/1/3 17/1/3
f 20/1/3 18/1/3 19/1/3
f 23/2/3 22/2/3 21/2/3
f 24/2/3 22/2/3 23/2/3
f 27/3/3 26/3/3 25/3/3
f 28/3/3 26/3/3 27/3/3
f 29/2/4 30/2/4 31/2/4
f 31/2/4 30/2/4 32/2/4
f 31/3/4 32/3/4 33/3/4
f 33/3/4 32/3/4 34/3/4
f 38/1/5 36/1/5 35/1/5
f 39/1/5 36/1/5 38/1/5
f 41/2/5 38/2/5 37/2/5
f 41/2/5 39/2/5 38/2/5
f 42/3/5 40/3/5 39/3/5
f 42/2/5 39/2/5 41/2/5
f 43/3/5 40/3/5 42/3/5
f 44/1/6 45/1/6 47/1/6
f 47/1/6 45/1/6 48/1/6
f 46/2/6 47/2/6 50/2/6
f 47/2/6 48/2/6 50/2/6
f 48/3/6 49/3/6 51/3/6
f 50/2/6 48/2/6 51/2/6
f 51/3/6 49/3/6 52/3/6
