# MagicaVoxel @ Ephtracy

# group
g Plant

# material
mtllib Plant.mtl
usemtl palette

# normals
vn -1 0 0
vn 1 0 0
vn 0 0 1
vn 0 0 -1
vn 0 -1 0
vn 0 1 0

# texcoords
vt 0.884766 0.5
vt 0.935547 0.5
vt 0.947266 0.5
vt 0.990234 0.5

# verts
v -3 0 2
v -3 0 -2
v -3 4 2
v -3 4 -2
v -3 6 1
v -3 6 -0
v -3 8 1
v -3 8 -0
v -3 9 1
v -3 9 -0
v -2 0 3
v -2 0 2
v -2 0 -2
v -2 0 -3
v -2 4 3
v -2 4 2
v -2 4 1
v -2 4 -0
v -2 4 -2
v -2 4 -3
v -2 6 1
v -2 6 -0
v -1 3 4
v -1 3 3
v -1 4 4
v -1 4 3
v -1 4 2
v -1 4 1
v -1 4 -0
v -1 4 -2
v -1 5 3
v -1 5 1
v -1 5 -0
v -1 5 -1
v -1 6 -1
v -1 6 -2
v -1 6 -3
v -1 7 1
v -1 7 -0
v -1 7 -2
v -1 7 -3
v -1 8 1
v -1 8 -0
v -1 8 -2
v -1 8 -3
v 0 5 1
v 0 5 -0
v 0 7 1
v 0 7 -0
v 1 3 -3
v 1 3 -4
v 1 4 2
v 1 4 1
v 1 4 -1
v 1 4 -2
v 1 4 -3
v 1 4 -4
v 1 5 2
v 1 5 1
v 1 5 -1
v 1 5 -3
v 1 7 2
v 1 7 1
v 1 9 2
v 1 9 1
v 1 10 2
v 1 10 1
v 2 5 1
v 2 5 -0
v 2 6 1
v 2 6 -0
v -2 6 1
v -2 6 -0
v -2 8 1
v -2 8 -0
v -2 9 1
v -2 9 -0
v -1 5 1
v -1 5 -0
v -1 6 1
v -1 6 -0
v 0 3 4
v 0 3 3
v 0 4 4
v 0 4 3
v 0 4 2
v 0 4 1
v 0 4 -1
v 0 4 -2
v 0 5 3
v 0 5 1
v 0 5 -1
v 0 6 -1
v 0 6 -2
v 0 6 -3
v 0 7 1
v 0 7 -0
v 0 7 -2
v 0 7 -3
v 0 8 1
v 0 8 -0
v 0 8 -2
v 0 8 -3
v 1 4 -0
v 1 4 -1
v 1 5 1
v 1 5 -0
v 1 5 -1
v 1 7 1
v 1 7 -0
v 2 0 3
v 2 0 2
v 2 0 -2
v 2 0 -3
v 2 3 3
v 2 3 2
v 2 3 -3
v 2 3 -4
v 2 4 1
v 2 4 -0
v 2 4 -1
v 2 4 -2
v 2 4 -3
v 2 4 -4
v 2 5 1
v 2 5 -0
v 2 5 -1
v 2 5 -3
v 2 7 2
v 2 7 1
v 2 9 2
v 2 9 1
v 2 10 2
v 2 10 1
v 3 0 2
v 3 0 -2
v 3 3 3
v 3 3 2
v 3 4 3
v 3 4 2
v 3 4 1
v 3 4 -2
v 3 5 2
v 3 5 1
v 3 5 -0
v 3 6 1
v 3 6 -0
v -1 3 4
v -1 4 4
v 0 3 4
v 0 4 4
v -2 0 3
v -2 4 3
v -1 3 3
v -1 4 3
v -1 5 3
v 0 3 3
v 0 4 3
v 0 5 3
v 2 0 3
v 2 3 3
v 2 4 3
v 3 3 3
v 3 4 3
v -3 0 2
v -3 4 2
v -2 0 2
v -2 4 2
v 1 4 2
v 1 5 2
v 1 7 2
v 1 9 2
v 1 10 2
v 2 0 2
v 2 3 2
v 2 4 2
v 2 7 2
v 2 9 2
v 2 10 2
v 3 0 2
v 3 3 2
v 3 4 2
v 3 5 2
v -3 6 1
v -3 8 1
v -3 9 1
v -2 4 1
v -2 6 1
v -2 8 1
v -2 9 1
v -1 4 1
v -1 5 1
v -1 6 1
v -1 7 1
v -1 8 1
v 0 4 1
v 0 5 1
v 0 7 1
v 0 8 1
v 1 4 1
v 1 5 1
v 1 7 1
v 2 5 1
v 2 6 1
v 3 5 1
v 3 6 1
v -1 5 -1
v -1 6 -1
v 0 5 -1
v 0 6 -1
v 1 4 -1
v 1 5 -1
v 2 4 -1
v 2 5 -1
v -1 6 -2
v -1 7 -2
v -1 8 -2
v 0 6 -2
v 0 7 -2
v 0 8 -2
v 1 7 1
v 1 9 1
v 1 10 1
v 2 4 1
v 2 5 1
v 2 7 1
v 2 9 1
v 2 10 1
v 3 4 1
v 3 5 1
v -3 6 -0
v -3 8 -0
v -3 9 -0
v -2 4 -0
v -2 6 -0
v -2 8 -0
v -2 9 -0
v -1 4 -0
v -1 5 -0
v -1 6 -0
v -1 7 -0
v -1 8 -0
v 0 5 -0
v 0 7 -0
v 0 8 -0
v 1 4 -0
v 1 5 -0
v 1 7 -0
v 2 4 -0
v 2 5 -0
v 2 6 -0
v 3 5 -0
v 3 6 -0
v 0 4 -1
v 0 5 -1
v 1 4 -1
v 1 5 -1
v -3 0 -2
v -3 4 -2
v -2 0 -2
v -2 4 -2
v -1 4 -2
v -1 6 -2
v 0 4 -2
v 0 6 -2
v 2 0 -2
v 2 4 -2
v 3 0 -2
v 3 4 -2
v -2 0 -3
v -2 4 -3
v -1 6 -3
v -1 7 -3
v -1 8 -3
v 0 6 -3
v 0 7 -3
v 0 8 -3
v 1 3 -3
v 1 4 -3
v 1 5 -3
v 2 0 -3
v 2 3 -3
v 2 4 -3
v 2 5 -3
v 1 3 -4
v 1 4 -4
v 2 3 -4
v 2 4 -4
v -2 0 3
v 2 0 3
v -3 0 2
v -2 0 2
v 2 0 2
v 3 0 2
v -3 0 -2
v -2 0 -2
v 2 0 -2
v 3 0 -2
v -2 0 -3
v 2 0 -3
v -1 3 4
v 0 3 4
v -1 3 3
v 0 3 3
v 2 3 3
v 3 3 3
v 2 3 2
v 3 3 2
v 1 3 -3
v 2 3 -3
v 1 3 -4
v 2 3 -4
v 2 5 1
v 3 5 1
v 2 5 -0
v 3 5 -0
v -3 6 1
v -2 6 1
v -3 6 -0
v -2 6 -0
v -1 6 -2
v 0 6 -2
v -1 6 -3
v 0 6 -3
v 1 7 2
v 2 7 2
v -1 7 1
v 0 7 1
v 1 7 1
v 2 7 1
v -1 7 -0
v 0 7 -0
v -1 4 4
v 0 4 4
v -2 4 3
v -1 4 3
v 0 4 3
v 2 4 3
v 3 4 3
v -3 4 2
v -2 4 2
v -1 4 2
v 0 4 2
v 1 4 2
v 2 4 2
v 3 4 2
v -2 4 1
v -1 4 1
v 0 4 1
v 1 4 1
v 2 4 1
v 3 4 1
v -2 4 -0
v -1 4 -0
v 1 4 -0
v 2 4 -0
v 0 4 -1
v 1 4 -1
v 2 4 -1
v -3 4 -2
v -2 4 -2
v -1 4 -2
v 0 4 -2
v 1 4 -2
v 2 4 -2
v 3 4 -2
v -2 4 -3
v 1 4 -3
v 2 4 -3
v 1 4 -4
v 2 4 -4
v -1 5 3
v 0 5 3
v 1 5 2
v 3 5 2
v -1 5 1
v 0 5 1
v 1 5 1
v 2 5 1
v 3 5 1
v -1 5 -0
v 0 5 -0
v 1 5 -0
v 2 5 -0
v -1 5 -1
v 0 5 -1
v 1 5 -1
v 2 5 -1
v 1 5 -3
v 2 5 -3
v -2 6 1
v -1 6 1
v 2 6 1
v 3 6 1
v -2 6 -0
v -1 6 -0
v 2 6 -0
v 3 6 -0
v -1 6 -1
v 0 6 -1
v -1 6 -2
v 0 6 -2
v 0 7 1
v 1 7 1
v 0 7 -0
v 1 7 -0
v -1 8 1
v 0 8 1
v -1 8 -0
v 0 8 -0
v -1 8 -2
v 0 8 -2
v -1 8 -3
v 0 8 -3
v -3 9 1
v -2 9 1
v -3 9 -0
v -2 9 -0
v 1 10 2
v 2 10 2
v 1 10 1
v 2 10 1

# faces
f 3/3/1 2/3/1 1/3/1
f 4/3/1 2/3/1 3/3/1
f 7/4/1 6/4/1 5/4/1
f 8/4/1 6/4/1 7/4/1
f 9/2/1 8/2/1 7/2/1
f 10/2/1 8/2/1 9/2/1
f 15/3/1 12/3/1 11/3/1
f 16/3/1 12/3/1 15/3/1
f 19/3/1 14/3/1 13/3/1
f 20/3/1 14/3/1 19/3/1
f 21/4/1 18/4/1 17/4/1
f 22/4/1 18/4/1 21/4/1
f 25/4/1 24/4/1 23/4/1
f 26/4/1 24/4/1 25/4/1
f 31/4/1 27/4/1 26/4/1
f 31/4/1 28/4/1 27/4/1
f 32/4/1 28/4/1 31/4/1
f 33/4/1 30/4/1 29/4/1
f 34/4/1 30/4/1 33/4/1
f 35/4/1 30/4/1 34/4/1
f 36/4/1 30/4/1 35/4/1
f 40/4/1 37/4/1 36/4/1
f 41/4/1 37/4/1 40/4/1
f 42/4/1 39/4/1 38/4/1
f 43/4/1 39/4/1 42/4/1
f 44/2/1 41/2/1 40/2/1
f 45/2/1 41/2/1 44/2/1
f 48/4/1 47/4/1 46/4/1
f 49/4/1 47/4/1 48/4/1
f 56/4/1 51/4/1 50/4/1
f 57/4/1 51/4/1 56/4/1
f 58/4/1 53/4/1 52/4/1
f 59/4/1 53/4/1 58/4/1
f 60/4/1 55/4/1 54/4/1
f 60/4/1 56/4/1 55/4/1
f 61/4/1 56/4/1 60/4/1
f 64/4/1 63/4/1 62/4/1
f 65/4/1 63/4/1 64/4/1
f 66/2/1 65/2/1 64/2/1
f 67/2/1 65/2/1 66/2/1
f 70/4/1 69/4/1 68/4/1
f 71/4/1 69/4/1 70/4/1
f 72/4/2 73/4/2 74/4/2
f 74/4/2 73/4/2 75/4/2
f 74/2/2 75/2/2 76/2/2
f 76/2/2 75/2/2 77/2/2
f 78/4/2 79/4/2 80/4/2
f 80/4/2 79/4/2 81/4/2
f 82/4/2 83/4/2 84/4/2
f 84/4/2 83/4/2 85/4/2
f 85/4/2 86/4/2 90/4/2
f 86/4/2 87/4/2 90/4/2
f 90/4/2 87/4/2 91/4/2
f 88/4/2 89/4/2 92/4/2
f 92/4/2 89/4/2 93/4/2
f 93/4/2 89/4/2 94/4/2
f 94/4/2 95/4/2 98/4/2
f 98/4/2 95/4/2 99/4/2
f 96/4/2 97/4/2 100/4/2
f 100/4/2 97/4/2 101/4/2
f 98/2/2 99/2/2 102/2/2
f 102/2/2 99/2/2 103/2/2
f 104/4/2 105/4/2 107/4/2
f 107/4/2 105/4/2 108/4/2
f 106/4/2 107/4/2 109/4/2
f 109/4/2 107/4/2 110/4/2
f 111/3/2 112/3/2 115/3/2
f 115/3/2 112/3/2 116/3/2
f 113/3/2 114/3/2 117/3/2
f 113/3/2 117/3/2 122/3/2
f 117/4/2 118/4/2 123/4/2
f 122/3/2 117/3/2 123/3/2
f 123/4/2 118/4/2 124/4/2
f 119/4/2 120/4/2 125/4/2
f 125/4/2 120/4/2 126/4/2
f 121/4/2 122/4/2 127/4/2
f 122/4/2 123/4/2 127/4/2
f 127/4/2 123/4/2 128/4/2
f 129/4/2 130/4/2 131/4/2
f 131/4/2 130/4/2 132/4/2
f 131/2/2 132/2/2 133/2/2
f 133/2/2 132/2/2 134/2/2
f 135/3/2 136/3/2 138/3/2
f 137/4/2 138/4/2 139/4/2
f 138/3/2 136/3/2 140/3/2
f 139/4/2 138/4/2 140/4/2
f 140/3/2 136/3/2 141/3/2
f 141/3/2 136/3/2 142/3/2
f 140/4/2 141/4/2 143/4/2
f 143/4/2 141/4/2 144/4/2
f 144/4/2 145/4/2 146/4/2
f 146/4/2 145/4/2 147/4/2
f 150/4/3 149/4/3 148/4/3
f 151/4/3 149/4/3 150/4/3
f 154/3/3 153/3/3 152/3/3
f 155/3/3 153/3/3 154/3/3
f 157/3/3 154/3/3 152/3/3
f 158/4/3 156/4/3 155/4/3
f 159/4/3 156/4/3 158/4/3
f 160/3/3 157/3/3 152/3/3
f 160/3/3 158/3/3 157/3/3
f 161/3/3 158/3/3 160/3/3
f 162/3/3 158/3/3 161/3/3
f 163/4/3 162/4/3 161/4/3
f 164/4/3 162/4/3 163/4/3
f 167/3/3 166/3/3 165/3/3
f 168/3/3 166/3/3 167/3/3
f 176/4/3 170/4/3 169/4/3
f 177/4/3 172/4/3 171/4/3
f 178/2/3 173/2/3 172/2/3
f 178/4/3 172/4/3 177/4/3
f 179/2/3 173/2/3 178/2/3
f 180/3/3 175/3/3 174/3/3
f 181/3/3 175/3/3 180/3/3
f 182/4/3 170/4/3 176/4/3
f 183/4/3 170/4/3 182/4/3
f 188/4/3 185/4/3 184/4/3
f 189/2/3 186/2/3 185/2/3
f 189/4/3 185/4/3 188/4/3
f 190/2/3 186/2/3 189/2/3
f 191/4/3 188/4/3 187/4/3
f 192/4/3 188/4/3 191/4/3
f 193/4/3 188/4/3 192/4/3
f 198/4/3 195/4/3 194/4/3
f 199/4/3 195/4/3 198/4/3
f 200/4/3 197/4/3 196/4/3
f 200/4/3 198/4/3 197/4/3
f 201/4/3 198/4/3 200/4/3
f 202/4/3 198/4/3 201/4/3
f 205/4/3 204/4/3 203/4/3
f 206/4/3 204/4/3 205/4/3
f 209/4/3 208/4/3 207/4/3
f 210/4/3 208/4/3 209/4/3
f 213/4/3 212/4/3 211/4/3
f 214/4/3 212/4/3 213/4/3
f 218/4/3 216/4/3 215/4/3
f 219/2/3 217/2/3 216/2/3
f 219/4/3 216/4/3 218/4/3
f 220/2/3 217/2/3 219/2/3
f 221/4/4 222/4/4 226/4/4
f 222/2/4 223/2/4 227/2/4
f 226/4/4 222/4/4 227/4/4
f 227/2/4 223/2/4 228/2/4
f 224/4/4 225/4/4 229/4/4
f 229/4/4 225/4/4 230/4/4
f 231/4/4 232/4/4 235/4/4
f 232/2/4 233/2/4 236/2/4
f 235/4/4 232/4/4 236/4/4
f 236/2/4 233/2/4 237/2/4
f 234/4/4 235/4/4 238/4/4
f 238/4/4 235/4/4 239/4/4
f 239/4/4 235/4/4 240/4/4
f 241/4/4 242/4/4 244/4/4
f 244/4/4 242/4/4 245/4/4
f 243/4/4 244/4/4 247/4/4
f 247/4/4 244/4/4 248/4/4
f 246/4/4 247/4/4 249/4/4
f 249/4/4 247/4/4 250/4/4
f 250/4/4 251/4/4 252/4/4
f 252/4/4 251/4/4 253/4/4
f 254/4/4 255/4/4 256/4/4
f 256/4/4 255/4/4 257/4/4
f 258/3/4 259/3/4 260/3/4
f 260/3/4 259/3/4 261/3/4
f 262/4/4 263/4/4 264/4/4
f 264/4/4 263/4/4 265/4/4
f 266/3/4 267/3/4 268/3/4
f 268/3/4 267/3/4 269/3/4
f 272/4/4 273/4/4 275/4/4
f 273/2/4 274/2/4 276/2/4
f 275/4/4 273/4/4 276/4/4
f 276/2/4 274/2/4 277/2/4
f 270/3/4 271/3/4 278/3/4
f 278/3/4 271/3/4 279/3/4
f 270/3/4 278/3/4 281/3/4
f 281/3/4 278/3/4 282/3/4
f 279/4/4 280/4/4 283/4/4
f 283/4/4 280/4/4 284/4/4
f 285/4/4 286/4/4 287/4/4
f 287/4/4 286/4/4 288/4/4
f 292/3/5 290/3/5 289/3/5
f 293/3/5 290/3/5 292/3/5
f 295/3/5 292/3/5 291/3/5
f 295/3/5 294/3/5 293/3/5
f 295/3/5 293/3/5 292/3/5
f 296/3/5 294/3/5 295/3/5
f 297/3/5 294/3/5 296/3/5
f 298/3/5 294/3/5 297/3/5
f 299/3/5 297/3/5 296/3/5
f 300/3/5 297/3/5 299/3/5
f 303/4/5 302/4/5 301/4/5
f 304/4/5 302/4/5 303/4/5
f 307/4/5 306/4/5 305/4/5
f 308/4/5 306/4/5 307/4/5
f 311/4/5 310/4/5 309/4/5
f 312/4/5 310/4/5 311/4/5
f 315/4/5 314/4/5 313/4/5
f 316/4/5 314/4/5 315/4/5
f 319/4/5 318/4/5 317/4/5
f 320/4/5 318/4/5 319/4/5
f 323/4/5 322/4/5 321/4/5
f 324/4/5 322/4/5 323/4/5
f 329/4/5 326/4/5 325/4/5
f 330/4/5 326/4/5 329/4/5
f 331/4/5 328/4/5 327/4/5
f 332/4/5 328/4/5 331/4/5
f 333/4/6 334/4/6 336/4/6
f 336/4/6 334/4/6 337/4/6
f 335/3/6 336/3/6 341/3/6
f 341/3/6 336/3/6 342/3/6
f 337/3/6 338/3/6 343/3/6
f 343/3/6 338/3/6 344/3/6
f 338/4/6 339/4/6 345/4/6
f 344/3/6 338/3/6 345/3/6
f 345/4/6 339/4/6 346/4/6
f 341/1/6 342/1/6 347/1/6
f 340/3/6 341/3/6 347/3/6
f 347/1/6 342/1/6 348/1/6
f 343/1/6 344/1/6 349/1/6
f 349/1/6 344/1/6 350/1/6
f 340/3/6 347/3/6 353/3/6
f 351/3/6 352/3/6 356/3/6
f 355/1/6 356/1/6 358/1/6
f 356/3/6 352/3/6 359/3/6
f 358/1/6 356/1/6 359/1/6
f 340/3/6 353/3/6 360/3/6
f 353/1/6 354/1/6 361/1/6
f 360/3/6 353/3/6 361/3/6
f 361/1/6 354/1/6 362/1/6
f 357/1/6 358/1/6 363/1/6
f 363/1/6 358/1/6 364/1/6
f 359/3/6 352/3/6 365/3/6
f 365/3/6 352/3/6 366/3/6
f 363/3/6 364/3/6 367/3/6
f 361/3/6 362/3/6 367/3/6
f 362/3/6 363/3/6 367/3/6
f 367/3/6 364/3/6 368/3/6
f 368/4/6 369/4/6 370/4/6
f 370/4/6 369/4/6 371/4/6
f 372/4/6 373/4/6 376/4/6
f 376/4/6 373/4/6 377/4/6
f 374/4/6 375/4/6 378/4/6
f 378/4/6 375/4/6 379/4/6
f 379/4/6 375/4/6 380/4/6
f 376/4/6 377/4/6 381/4/6
f 381/4/6 377/4/6 382/4/6
f 378/4/6 379/4/6 383/4/6
f 383/4/6 379/4/6 384/4/6
f 381/4/6 382/4/6 385/4/6
f 382/4/6 383/4/6 385/4/6
f 385/4/6 383/4/6 386/4/6
f 386/4/6 383/4/6 387/4/6
f 387/4/6 388/4/6 389/4/6
f 389/4/6 388/4/6 390/4/6
f 391/4/6 392/4/6 395/4/6
f 395/4/6 392/4/6 396/4/6
f 393/4/6 394/4/6 397/4/6
f 397/4/6 394/4/6 398/4/6
f 399/4/6 400/4/6 401/4/6
f 401/4/6 400/4/6 402/4/6
f 403/4/6 404/4/6 405/4/6
f 405/4/6 404/4/6 406/4/6
f 407/4/6 408/4/6 409/4/6
f 409/4/6 408/4/6 410/4/6
f 411/2/6 412/2/6 413/2/6
f 413/2/6 412/2/6 414/2/6
f 415/2/6 416/2/6 417/2/6
f 417/2/6 416/2/6 418/2/6
f 419/2/6 420/2/6 421/2/6
f 421/2/6 420/2/6 422/2/6
