# MagicaVoxel @ Ephtracy

# group
g Toaster

# material
mtllib Toaster.mtl
usemtl palette

# normals
vn -1 0 0
vn 1 0 0
vn 0 0 1
vn 0 0 -1
vn 0 -1 0
vn 0 1 0

# texcoords
vt 0.919922 0.5
vt 0.994141 0.5

# verts
v -3.5 0 2.5
v -3.5 0 1.5
v -3.5 0 -1.5
v -3.5 0 -2.5
v -3.5 1 2.5
v -3.5 1 1.5
v -3.5 1 -1.5
v -3.5 1 -2.5
v -3.5 5 2.5
v -3.5 5 -2.5
v 1.5 0 2.5
v 1.5 0 1.5
v 1.5 0 -1.5
v 1.5 0 -2.5
v 1.5 1 2.5
v 1.5 1 1.5
v 1.5 1 -1.5
v 1.5 1 -2.5
v 1.5 3 1.5
v 1.5 3 0.5
v 1.5 3 -0.5
v 1.5 3 -1.5
v 1.5 5 1.5
v 1.5 5 0.5
v 1.5 5 -0.5
v 1.5 5 -1.5
v -2.5 0 2.5
v -2.5 0 1.5
v -2.5 0 -1.5
v -2.5 0 -2.5
v -2.5 1 2.5
v -2.5 1 1.5
v -2.5 1 -1.5
v -2.5 1 -2.5
v -2.5 3 1.5
v -2.5 3 0.5
v -2.5 3 -0.5
v -2.5 3 -1.5
v -2.5 5 1.5
v -2.5 5 0.5
v -2.5 5 -0.5
v -2.5 5 -1.5
v 1.5 3 0.5
v 1.5 3 -0.5
v 1.5 4 0.5
v 1.5 4 -0.5
v 2.5 0 2.5
v 2.5 0 1.5
v 2.5 0 -1.5
v 2.5 0 -2.5
v 2.5 1 2.5
v 2.5 1 1.5
v 2.5 1 -1.5
v 2.5 1 -2.5
v 2.5 2 0.5
v 2.5 2 -0.5
v 2.5 3 0.5
v 2.5 3 -0.5
v 2.5 4 0.5
v 2.5 4 -0.5
v 2.5 5 2.5
v 2.5 5 -2.5
v 3.5 2 0.5
v 3.5 2 -0.5
v 3.5 3 0.5
v 3.5 3 -0.5
v -3.5 0 2.5
v -3.5 1 2.5
v -3.5 5 2.5
v -2.5 0 2.5
v -2.5 1 2.5
v 1.5 0 2.5
v 1.5 1 2.5
v 2.5 0 2.5
v 2.5 1 2.5
v 2.5 5 2.5
v -2.5 3 0.5
v -2.5 5 0.5
v 1.5 3 0.5
v 1.5 5 0.5
v 2.5 2 0.5
v 2.5 3 0.5
v 3.5 2 0.5
v 3.5 3 0.5
v 1.5 3 -0.5
v 1.5 4 -0.5
v 2.5 3 -0.5
v 2.5 4 -0.5
v -3.5 0 -1.5
v -3.5 1 -1.5
v -2.5 0 -1.5
v -2.5 1 -1.5
v -2.5 3 -1.5
v -2.5 5 -1.5
v 1.5 0 -1.5
v 1.5 1 -1.5
v 1.5 3 -1.5
v 1.5 5 -1.5
v 2.5 0 -1.5
v 2.5 1 -1.5
v -3.5 0 1.5
v -3.5 1 1.5
v -2.5 0 1.5
v -2.5 1 1.5
v -2.5 3 1.5
v -2.5 5 1.5
v 1.5 0 1.5
v 1.5 1 1.5
v 1.5 3 1.5
v 1.5 5 1.5
v 2.5 0 1.5
v 2.5 1 1.5
v 1.5 3 0.5
v 1.5 4 0.5
v 2.5 3 0.5
v 2.5 4 0.5
v -2.5 3 -0.5
v -2.5 5 -0.5
v 1.5 3 -0.5
v 1.5 5 -0.5
v 2.5 2 -0.5
v 2.5 3 -0.5
v 3.5 2 -0.5
v 3.5 3 -0.5
v -3.5 0 -2.5
v -3.5 1 -2.5
v -3.5 5 -2.5
v -2.5 0 -2.5
v -2.5 1 -2.5
v 1.5 0 -2.5
v 1.5 1 -2.5
v 2.5 0 -2.5
v 2.5 1 -2.5
v 2.5 5 -2.5
v -3.5 0 2.5
v -2.5 0 2.5
v 1.5 0 2.5
v 2.5 0 2.5
v -3.5 0 1.5
v -2.5 0 1.5
v 1.5 0 1.5
v 2.5 0 1.5
v -3.5 0 -1.5
v -2.5 0 -1.5
v 1.5 0 -1.5
v 2.5 0 -1.5
v -3.5 0 -2.5
v -2.5 0 -2.5
v 1.5 0 -2.5
v 2.5 0 -2.5
v -2.5 1 2.5
v 1.5 1 2.5
v -3.5 1 1.5
v -2.5 1 1.5
v 1.5 1 1.5
v 2.5 1 1.5
v -3.5 1 -1.5
v -2.5 1 -1.5
v 1.5 1 -1.5
v 2.5 1 -1.5
v -2.5 1 -2.5
v 1.5 1 -2.5
v 2.5 2 0.5
v 3.5 2 0.5
v 2.5 2 -0.5
v 3.5 2 -0.5
v 1.5 4 0.5
v 2.5 4 0.5
v 1.5 4 -0.5
v 2.5 4 -0.5
v -2.5 3 1.5
v 1.5 3 1.5
v -2.5 3 0.5
v 1.5 3 0.5
v 2.5 3 0.5
v 3.5 3 0.5
v -2.5 3 -0.5
v 1.5 3 -0.5
v 2.5 3 -0.5
v 3.5 3 -0.5
v -2.5 3 -1.5
v 1.5 3 -1.5
v -3.5 5 2.5
v 2.5 5 2.5
v -2.5 5 1.5
v 1.5 5 1.5
v -2.5 5 0.5
v 1.5 5 0.5
v -2.5 5 -0.5
v 1.5 5 -0.5
v -2.5 5 -1.5
v 1.5 5 -1.5
v -3.5 5 -2.5
v 2.5 5 -2.5

# faces
f 5/2/1 2/2/1 1/2/1
f 6/2/1 2/2/1 5/2/1
f 7/2/1 4/2/1 3/2/1
f 8/2/1 4/2/1 7/2/1
f 9/1/1 6/1/1 5/1/1
f 9/1/1 7/1/1 6/1/1
f 9/1/1 8/1/1 7/1/1
f 10/1/1 8/1/1 9/1/1
f 15/2/1 12/2/1 11/2/1
f 16/2/1 12/2/1 15/2/1
f 17/2/1 14/2/1 13/2/1
f 18/2/1 14/2/1 17/2/1
f 23/1/1 20/1/1 19/1/1
f 24/1/1 20/1/1 23/1/1
f 25/1/1 22/1/1 21/1/1
f 26/1/1 22/1/1 25/1/1
f 27/2/2 28/2/2 31/2/2
f 31/2/2 28/2/2 32/2/2
f 29/2/2 30/2/2 33/2/2
f 33/2/2 30/2/2 34/2/2
f 35/1/2 36/1/2 39/1/2
f 39/1/2 36/1/2 40/1/2
f 37/1/2 38/1/2 41/1/2
f 41/1/2 38/1/2 42/1/2
f 43/1/2 44/1/2 45/1/2
f 45/1/2 44/1/2 46/1/2
f 47/2/2 48/2/2 51/2/2
f 51/2/2 48/2/2 52/2/2
f 49/2/2 50/2/2 53/2/2
f 53/2/2 50/2/2 54/2/2
f 51/1/2 52/1/2 55/1/2
f 52/1/2 53/1/2 55/1/2
f 53/1/2 54/1/2 55/1/2
f 55/1/2 54/1/2 56/1/2
f 51/1/2 55/1/2 57/1/2
f 56/1/2 54/1/2 58/1/2
f 51/1/2 57/1/2 59/1/2
f 58/1/2 54/1/2 60/1/2
f 51/1/2 59/1/2 61/1/2
f 59/1/2 60/1/2 61/1/2
f 60/1/2 54/1/2 62/1/2
f 61/1/2 60/1/2 62/1/2
f 63/2/2 64/2/2 65/2/2
f 65/2/2 64/2/2 66/2/2
f 70/2/3 68/2/3 67/2/3
f 71/1/3 69/1/3 68/1/3
f 71/2/3 68/2/3 70/2/3
f 73/1/3 69/1/3 71/1/3
f 74/2/3 73/2/3 72/2/3
f 75/1/3 69/1/3 73/1/3
f 75/2/3 73/2/3 74/2/3
f 76/1/3 69/1/3 75/1/3
f 79/1/3 78/1/3 77/1/3
f 80/1/3 78/1/3 79/1/3
f 83/2/3 82/2/3 81/2/3
f 84/2/3 82/2/3 83/2/3
f 87/1/3 86/1/3 85/1/3
f 88/1/3 86/1/3 87/1/3
f 91/2/3 90/2/3 89/2/3
f 92/2/3 90/2/3 91/2/3
f 97/1/3 94/1/3 93/1/3
f 98/1/3 94/1/3 97/1/3
f 99/2/3 96/2/3 95/2/3
f 100/2/3 96/2/3 99/2/3
f 101/2/4 102/2/4 103/2/4
f 103/2/4 102/2/4 104/2/4
f 105/1/4 106/1/4 109/1/4
f 109/1/4 106/1/4 110/1/4
f 107/2/4 108/2/4 111/2/4
f 111/2/4 108/2/4 112/2/4
f 113/1/4 114/1/4 115/1/4
f 115/1/4 114/1/4 116/1/4
f 117/1/4 118/1/4 119/1/4
f 119/1/4 118/1/4 120/1/4
f 121/2/4 122/2/4 123/2/4
f 123/2/4 122/2/4 124/2/4
f 125/2/4 126/2/4 128/2/4
f 126/1/4 127/1/4 129/1/4
f 128/2/4 126/2/4 129/2/4
f 129/1/4 127/1/4 131/1/4
f 130/2/4 131/2/4 132/2/4
f 131/1/4 127/1/4 133/1/4
f 132/2/4 131/2/4 133/2/4
f 133/1/4 127/1/4 134/1/4
f 139/2/5 136/2/5 135/2/5
f 140/2/5 136/2/5 139/2/5
f 141/2/5 138/2/5 137/2/5
f 142/2/5 138/2/5 141/2/5
f 147/2/5 144/2/5 143/2/5
f 148/2/5 144/2/5 147/2/5
f 149/2/5 146/2/5 145/2/5
f 150/2/5 146/2/5 149/2/5
f 154/1/5 152/1/5 151/1/5
f 155/1/5 152/1/5 154/1/5
f 157/1/5 154/1/5 153/1/5
f 157/1/5 156/1/5 155/1/5
f 157/1/5 155/1/5 154/1/5
f 158/1/5 156/1/5 157/1/5
f 159/1/5 156/1/5 158/1/5
f 160/1/5 156/1/5 159/1/5
f 161/1/5 159/1/5 158/1/5
f 162/1/5 159/1/5 161/1/5
f 165/2/5 164/2/5 163/2/5
f 166/2/5 164/2/5 165/2/5
f 169/1/5 168/1/5 167/1/5
f 170/1/5 168/1/5 169/1/5
f 171/1/6 172/1/6 173/1/6
f 173/1/6 172/1/6 174/1/6
f 175/2/6 176/2/6 178/2/6
f 174/2/6 175/2/6 178/2/6
f 178/2/6 176/2/6 179/2/6
f 179/2/6 176/2/6 180/2/6
f 177/1/6 178/1/6 181/1/6
f 181/1/6 178/1/6 182/1/6
f 183/1/6 184/1/6 185/1/6
f 185/1/6 184/1/6 186/1/6
f 183/1/6 185/1/6 187/1/6
f 186/1/6 184/1/6 188/1/6
f 183/1/6 187/1/6 189/1/6
f 187/1/6 188/1/6 189/1/6
f 188/1/6 184/1/6 190/1/6
f 189/1/6 188/1/6 190/1/6
f 183/1/6 189/1/6 191/1/6
f 190/1/6 184/1/6 192/1/6
f 183/1/6 191/1/6 193/1/6
f 191/1/6 192/1/6 193/1/6
f 192/1/6 184/1/6 194/1/6
f 193/1/6 192/1/6 194/1/6
