# MagicaVoxel @ Ephtracy

# group
o 

# material
mtllib chef.mtl
usemtl palette

# normals
vn -1 0 0
vn 1 0 0
vn 0 0 1
vn 0 0 -1
vn 0 -1 0
vn 0 1 0

# texcoords
vt 0.0332031 0.5
vt 0.962891 0.5
vt 0.982422 0.5
vt 0.994141 0.5

# verts
v 0.7 8.7 -2.5
v 0.7 8.7 -4.7
v 0.7 9.3 -2.5
v 0.7 9.3 -4.7
v 0.9 7.4 -2.5
v 0.9 7.4 -4.7
v 0.9 7.9 -2.5
v 0.9 7.9 -4.7
v 0.9 8.7 -4.7
v 0.9 8.7 -4.9
v 0.9 9.3 -4.7
v 0.9 9.3 -4.9
v 1 4.2 -2.5
v 1 4.2 -4.7
v 1 6.6 -2.5
v 1 6.6 -4.7
v 1 7.4 -2.4
v 1 7.4 -2.5
v 1 7.4 -4.7
v 1 7.4 -4.8
v 1 7.9 -2.4
v 1 7.9 -2.5
v 1 7.9 -4.7
v 1 7.9 -4.8
v 1 8.7 -2.3
v 1 8.7 -2.5
v 1 8.7 -4.7
v 1 9.3 -2.3
v 1 9.3 -2.5
v 1.4 6.8 -3.5
v 1.4 6.8 -3.7
v 1.4 6.9 -3.5
v 1.4 6.9 -3.7
v 1.5 4.7 -4.4
v 1.5 4.7 -4.5
v 1.5 4.8 -4.4
v 1.5 4.8 -4.5
v 1.5 7.4 -2.9
v 1.5 7.4 -3
v 1.5 7.6 -2.9
v 1.5 7.6 -3
v 1.5 8.9 -3
v 1.5 8.9 -4.7
v 1.5 9 -3
v 1.5 9 -4.7
v 2.4 6 -2.3
v 2.4 6 -2.5
v 2.4 6 -4.7
v 2.4 6 -4.9
v 2.4 6.2 -2.3
v 2.4 6.2 -2.5
v 2.4 6.2 -4.7
v 2.4 6.2 -4.9
v 1.3 4.7 -4.4
v 1.3 4.7 -4.5
v 1.3 4.8 -4.4
v 1.3 4.8 -4.5
v 1.3 6.8 -3.5
v 1.3 6.8 -3.7
v 1.3 6.9 -3.5
v 1.3 6.9 -3.7
v 1.3 8.9 -3.6
v 1.3 8.9 -4.7
v 1.3 9 -3.6
v 1.3 9 -4.7
v 1.4 7.4 -2.9
v 1.4 7.4 -3
v 1.4 7.6 -2.9
v 1.4 7.6 -3
v 1.4 8.9 -3
v 1.4 8.9 -3.6
v 1.4 9 -3
v 1.4 9 -3.6
v 3 4.2 -2.5
v 3 4.2 -4.7
v 3 5.4 -4.2
v 3 5.4 -4.4
v 3 5.6 -4.2
v 3 5.6 -4.4
v 3 5.8 -4.2
v 3 5.8 -4.4
v 3 6 -2.5
v 3 6 -4.2
v 3 6 -4.4
v 3 6 -4.7
v 3 6.1 -2.7
v 3 6.1 -3
v 3 6.2 -2.5
v 3 6.2 -2.7
v 3 6.2 -3
v 3 6.2 -4.2
v 3 6.2 -4.4
v 3 6.2 -4.7
v 3 6.4 -4.2
v 3 6.4 -4.4
v 3 6.6 -2.5
v 3 6.6 -4.7
v 3 6.8 -2.6
v 3 6.8 -3.1
v 3 6.8 -4.1
v 3 6.8 -4.6
v 3 7 -2.8
v 3 7 -2.9
v 3 7 -3.1
v 3 7 -4.1
v 3 7 -4.3
v 3 7 -4.4
v 3 7.2 -2.6
v 3 7.2 -2.8
v 3 7.2 -4.4
v 3 7.2 -4.6
v 3 7.3 -2.9
v 3 7.3 -3.1
v 3 7.3 -4.1
v 3 7.3 -4.3
v 3 7.4 -2.4
v 3 7.4 -2.5
v 3 7.4 -4.7
v 3 7.4 -4.8
v 3 7.7 -2.9
v 3 7.7 -3.1
v 3 7.7 -4.1
v 3 7.7 -4.3
v 3 7.9 -2.4
v 3 7.9 -2.5
v 3 7.9 -4.7
v 3 7.9 -4.8
v 3 8.7 -2.3
v 3 8.7 -2.5
v 3 8.7 -4.7
v 3 8.7 -4.9
v 3 9.3 -2.3
v 3 9.3 -2.5
v 3 9.3 -4.7
v 3 9.3 -4.9
v 3.1 6.8 -2.6
v 3.1 6.8 -3.1
v 3.1 6.8 -4.1
v 3.1 6.8 -4.6
v 3.1 7 -2.8
v 3.1 7 -2.9
v 3.1 7 -3.1
v 3.1 7 -4.1
v 3.1 7 -4.3
v 3.1 7 -4.4
v 3.1 7.2 -2.6
v 3.1 7.2 -2.8
v 3.1 7.2 -4.4
v 3.1 7.2 -4.6
v 3.1 7.3 -2.9
v 3.1 7.3 -3.1
v 3.1 7.3 -4.1
v 3.1 7.3 -4.3
v 3.1 7.7 -2.9
v 3.1 7.7 -3.1
v 3.1 7.7 -4.1
v 3.1 7.7 -4.3
v 3.2 8.7 -2.5
v 3.2 8.7 -4.7
v 3.2 9.3 -2.5
v 3.2 9.3 -4.7
v 3.7 6 -2.3
v 3.7 6 -2.5
v 3.7 6 -4.7
v 3.7 6 -4.9
v 3.7 6.2 -2.3
v 3.7 6.2 -2.5
v 3.7 6.2 -4.7
v 3.7 6.2 -4.9
v 1 8.7 -2.3
v 1 9.3 -2.3
v 2.4 6 -2.3
v 2.4 6.2 -2.3
v 3 8.7 -2.3
v 3 9.3 -2.3
v 3.5 6 -2.3
v 3.5 6.2 -2.3
v 3.7 6 -2.3
v 3.7 6.2 -2.3
v 1 7.4 -2.4
v 1 7.9 -2.4
v 3 7.4 -2.4
v 3 7.9 -2.4
v 0.7 8.7 -2.5
v 0.7 9.3 -2.5
v 0.9 7.4 -2.5
v 0.9 7.9 -2.5
v 1 4.2 -2.5
v 1 6.6 -2.5
v 1 7.4 -2.5
v 1 7.9 -2.5
v 1 8.7 -2.5
v 1 9.3 -2.5
v 2.4 6 -2.5
v 2.4 6.2 -2.5
v 3 4.2 -2.5
v 3 6 -2.5
v 3 6.2 -2.5
v 3 6.6 -2.5
v 3 7.4 -2.5
v 3 7.9 -2.5
v 3 8.7 -2.5
v 3 9.3 -2.5
v 3.2 8.7 -2.5
v 3.2 9.3 -2.5
v 3 6.8 -2.6
v 3 7.2 -2.6
v 3.1 6.8 -2.6
v 3.1 7.2 -2.6
v 3 7 -2.9
v 3 7.3 -2.9
v 3 7.7 -2.9
v 3.1 7 -2.9
v 3.1 7.3 -2.9
v 3.1 7.7 -2.9
v 1.4 7.4 -3
v 1.4 7.6 -3
v 1.5 7.4 -3
v 1.5 7.6 -3
v 1.3 6.8 -3.7
v 1.3 6.9 -3.7
v 1.4 6.8 -3.7
v 1.4 6.9 -3.7
v 3 6.8 -4.1
v 3 7 -4.1
v 3 7.3 -4.1
v 3 7.7 -4.1
v 3.1 6.8 -4.1
v 3.1 7 -4.1
v 3.1 7.3 -4.1
v 3.1 7.7 -4.1
v 3 7 -4.4
v 3 7.2 -4.4
v 3.1 7 -4.4
v 3.1 7.2 -4.4
v 1.3 4.7 -4.5
v 1.3 4.8 -4.5
v 1.5 4.7 -4.5
v 1.5 4.8 -4.5
v 1.3 8.9 -4.7
v 1.3 9 -4.7
v 1.5 8.9 -4.7
v 1.5 9 -4.7
v 3 6 -4.7
v 3 6.2 -4.7
v 3.5 6 -4.7
v 3.5 6.2 -4.7
v 3.7 6 -4.7
v 3.7 6.2 -4.7
v 3 6 -2.5
v 3 6.2 -2.5
v 3.5 6 -2.5
v 3.5 6.2 -2.5
v 3.7 6 -2.5
v 3.7 6.2 -2.5
v 3 7 -2.8
v 3 7.2 -2.8
v 3.1 7 -2.8
v 3.1 7.2 -2.8
v 1.4 7.4 -2.9
v 1.4 7.6 -2.9
v 1.5 7.4 -2.9
v 1.5 7.6 -2.9
v 1.4 8.9 -3
v 1.4 9 -3
v 1.5 8.9 -3
v 1.5 9 -3
v 3 6.8 -3.1
v 3 7 -3.1
v 3 7.3 -3.1
v 3 7.7 -3.1
v 3.1 6.8 -3.1
v 3.1 7 -3.1
v 3.1 7.3 -3.1
v 3.1 7.7 -3.1
v 1.3 6.8 -3.5
v 1.3 6.9 -3.5
v 1.4 6.8 -3.5
v 1.4 6.9 -3.5
v 1.3 8.9 -3.6
v 1.3 9 -3.6
v 1.4 8.9 -3.6
v 1.4 9 -3.6
v 3 7 -4.3
v 3 7.3 -4.3
v 3 7.7 -4.3
v 3.1 7 -4.3
v 3.1 7.3 -4.3
v 3.1 7.7 -4.3
v 1.3 4.7 -4.4
v 1.3 4.8 -4.4
v 1.5 4.7 -4.4
v 1.5 4.8 -4.4
v 3 6.8 -4.6
v 3 7.2 -4.6
v 3.1 6.8 -4.6
v 3.1 7.2 -4.6
v 0.7 8.7 -4.7
v 0.7 9.3 -4.7
v 0.9 7.4 -4.7
v 0.9 7.9 -4.7
v 0.9 8.7 -4.7
v 0.9 9.3 -4.7
v 1 4.2 -4.7
v 1 6.6 -4.7
v 1 7.4 -4.7
v 1 7.9 -4.7
v 1 8.7 -4.7
v 2.4 6 -4.7
v 2.4 6.2 -4.7
v 3 4.2 -4.7
v 3 6 -4.7
v 3 6.2 -4.7
v 3 6.6 -4.7
v 3 7.4 -4.7
v 3 7.9 -4.7
v 3 8.7 -4.7
v 3 9.3 -4.7
v 3.2 8.7 -4.7
v 3.2 9.3 -4.7
v 1 7.4 -4.8
v 1 7.9 -4.8
v 3 7.4 -4.8
v 3 7.9 -4.8
v 0.9 8.7 -4.9
v 0.9 9.3 -4.9
v 2.4 6 -4.9
v 2.4 6.2 -4.9
v 3 8.7 -4.9
v 3 9.3 -4.9
v 3.5 6 -4.9
v 3.5 6.2 -4.9
v 3.7 6 -4.9
v 3.7 6.2 -4.9
v 1 4.2 -2.5
v 3 4.2 -2.5
v 1 4.2 -4.7
v 3 4.2 -4.7
v 1.3 4.8 -4.4
v 1.5 4.8 -4.4
v 1.3 4.8 -4.5
v 1.5 4.8 -4.5
v 2.4 6 -2.3
v 3.5 6 -2.3
v 3.7 6 -2.3
v 2.4 6 -2.5
v 3 6 -2.5
v 3.5 6 -2.5
v 3.7 6 -2.5
v 2.4 6 -4.7
v 3 6 -4.7
v 3.5 6 -4.7
v 3.7 6 -4.7
v 2.4 6 -4.9
v 3.5 6 -4.9
v 3.7 6 -4.9
v 3 6.8 -2.6
v 3.1 6.8 -2.6
v 3 6.8 -3.1
v 3.1 6.8 -3.1
v 3 6.8 -4.1
v 3.1 6.8 -4.1
v 3 6.8 -4.6
v 3.1 6.8 -4.6
v 1.3 6.9 -3.5
v 1.4 6.9 -3.5
v 1.3 6.9 -3.7
v 1.4 6.9 -3.7
v 3 7 -3.1
v 3.1 7 -3.1
v 3 7 -4.1
v 3.1 7 -4.1
v 1 7.4 -2.4
v 3 7.4 -2.4
v 0.9 7.4 -2.5
v 1 7.4 -2.5
v 3 7.4 -2.5
v 0.9 7.4 -4.7
v 1 7.4 -4.7
v 3 7.4 -4.7
v 1 7.4 -4.8
v 3 7.4 -4.8
v 1.4 7.6 -2.9
v 1.5 7.6 -2.9
v 1.4 7.6 -3
v 1.5 7.6 -3
v 1 8.7 -2.3
v 3 8.7 -2.3
v 0.7 8.7 -2.5
v 1 8.7 -2.5
v 3 8.7 -2.5
v 3.2 8.7 -2.5
v 0.7 8.7 -4.7
v 0.9 8.7 -4.7
v 1 8.7 -4.7
v 3 8.7 -4.7
v 3.2 8.7 -4.7
v 0.9 8.7 -4.9
v 3 8.7 -4.9
v 1.4 9 -3
v 1.5 9 -3
v 1.3 9 -3.6
v 1.4 9 -3.6
v 1.3 9 -4.7
v 1.5 9 -4.7
v 1.3 4.7 -4.4
v 1.5 4.7 -4.4
v 1.3 4.7 -4.5
v 1.5 4.7 -4.5
v 2.4 6.2 -2.3
v 3.5 6.2 -2.3
v 3.7 6.2 -2.3
v 2.4 6.2 -2.5
v 3 6.2 -2.5
v 3.5 6.2 -2.5
v 3.7 6.2 -2.5
v 2.4 6.2 -4.7
v 3 6.2 -4.7
v 3.5 6.2 -4.7
v 3.7 6.2 -4.7
v 2.4 6.2 -4.9
v 3.5 6.2 -4.9
v 3.7 6.2 -4.9
v 1.3 6.8 -3.5
v 1.4 6.8 -3.5
v 1.3 6.8 -3.7
v 1.4 6.8 -3.7
v 3 7 -2.8
v 3.1 7 -2.8
v 3 7 -2.9
v 3.1 7 -2.9
v 3 7 -4.3
v 3.1 7 -4.3
v 3 7 -4.4
v 3.1 7 -4.4
v 3 7.2 -2.6
v 3.1 7.2 -2.6
v 3 7.2 -2.8
v 3.1 7.2 -2.8
v 3 7.2 -4.4
v 3.1 7.2 -4.4
v 3 7.2 -4.6
v 3.1 7.2 -4.6
v 3 7.3 -3.1
v 3.1 7.3 -3.1
v 3 7.3 -4.1
v 3.1 7.3 -4.1
v 1.4 7.4 -2.9
v 1.5 7.4 -2.9
v 1.4 7.4 -3
v 1.5 7.4 -3
v 3 7.7 -2.9
v 3.1 7.7 -2.9
v 3 7.7 -3.1
v 3.1 7.7 -3.1
v 3 7.7 -4.1
v 3.1 7.7 -4.1
v 3 7.7 -4.3
v 3.1 7.7 -4.3
v 1 7.9 -2.4
v 3 7.9 -2.4
v 0.9 7.9 -2.5
v 1 7.9 -2.5
v 3 7.9 -2.5
v 0.9 7.9 -4.7
v 1 7.9 -4.7
v 3 7.9 -4.7
v 1 7.9 -4.8
v 3 7.9 -4.8
v 1.4 8.9 -3
v 1.5 8.9 -3
v 1.3 8.9 -3.6
v 1.4 8.9 -3.6
v 1.3 8.9 -4.7
v 1.5 8.9 -4.7
v 1 9.3 -2.3
v 3 9.3 -2.3
v 0.7 9.3 -2.5
v 1 9.3 -2.5
v 3 9.3 -2.5
v 3.2 9.3 -2.5
v 0.7 9.3 -4.7
v 0.9 9.3 -4.7
v 3 9.3 -4.7
v 3.2 9.3 -4.7
v 0.9 9.3 -4.9
v 3 9.3 -4.9

# faces
f 3/2/1 2/2/1 1/2/1
f 4/2/1 2/2/1 3/2/1
f 7/3/1 6/3/1 5/3/1
f 8/3/1 6/3/1 7/3/1
f 11/2/1 10/2/1 9/2/1
f 12/2/1 10/2/1 11/2/1
f 15/2/1 14/2/1 13/2/1
f 16/2/1 14/2/1 15/2/1
f 18/1/1 16/1/1 15/1/1
f 19/1/1 16/1/1 18/1/1
f 21/3/1 18/3/1 17/3/1
f 22/3/1 18/3/1 21/3/1
f 23/3/1 20/3/1 19/3/1
f 24/3/1 20/3/1 23/3/1
f 26/2/1 23/2/1 22/2/1
f 27/2/1 23/2/1 26/2/1
f 28/2/1 26/2/1 25/2/1
f 29/2/1 26/2/1 28/2/1
f 32/1/1 31/1/1 30/1/1
f 33/1/1 31/1/1 32/1/1
f 36/2/1 35/2/1 34/2/1
f 37/2/1 35/2/1 36/2/1
f 40/2/1 39/2/1 38/2/1
f 41/2/1 39/2/1 40/2/1
f 44/2/1 43/2/1 42/2/1
f 45/2/1 43/2/1 44/2/1
f 50/2/1 47/2/1 46/2/1
f 51/2/1 47/2/1 50/2/1
f 52/2/1 49/2/1 48/2/1
f 53/2/1 49/2/1 52/2/1
f 54/2/2 55/2/2 56/2/2
f 56/2/2 55/2/2 57/2/2
f 58/1/2 59/1/2 60/1/2
f 60/1/2 59/1/2 61/1/2
f 62/2/2 63/2/2 64/2/2
f 64/2/2 63/2/2 65/2/2
f 66/2/2 67/2/2 68/2/2
f 68/2/2 67/2/2 69/2/2
f 70/2/2 71/2/2 72/2/2
f 72/2/2 71/2/2 73/2/2
f 74/2/2 75/2/2 76/2/2
f 76/2/2 75/2/2 77/2/2
f 74/2/2 76/2/2 78/2/2
f 76/4/2 77/4/2 78/4/2
f 77/2/2 75/2/2 79/2/2
f 78/4/2 77/4/2 79/4/2
f 74/2/2 78/2/2 80/2/2
f 78/2/2 79/2/2 80/2/2
f 79/2/2 75/2/2 81/2/2
f 80/2/2 79/2/2 81/2/2
f 74/2/2 80/2/2 82/2/2
f 80/4/2 81/4/2 83/4/2
f 82/2/2 80/2/2 83/2/2
f 81/2/2 75/2/2 84/2/2
f 83/4/2 81/4/2 84/4/2
f 84/2/2 75/2/2 85/2/2
f 82/2/2 83/2/2 86/2/2
f 83/2/2 84/2/2 86/2/2
f 84/2/2 85/2/2 86/2/2
f 86/2/2 85/2/2 87/2/2
f 82/2/2 86/2/2 88/2/2
f 86/4/2 87/4/2 89/4/2
f 88/2/2 86/2/2 89/2/2
f 87/2/2 85/2/2 90/2/2
f 89/4/2 87/4/2 90/4/2
f 90/2/2 85/2/2 91/2/2
f 91/2/2 85/2/2 92/2/2
f 92/2/2 85/2/2 93/2/2
f 88/2/2 89/2/2 94/2/2
f 89/2/2 90/2/2 94/2/2
f 90/2/2 91/2/2 94/2/2
f 91/4/2 92/4/2 94/4/2
f 92/2/2 93/2/2 95/2/2
f 94/4/2 92/4/2 95/4/2
f 88/2/2 94/2/2 96/2/2
f 94/2/2 95/2/2 96/2/2
f 95/2/2 93/2/2 97/2/2
f 96/2/2 95/2/2 97/2/2
f 96/1/2 97/1/2 98/1/2
f 98/1/2 97/1/2 99/1/2
f 99/1/2 97/1/2 100/1/2
f 100/1/2 97/1/2 101/1/2
f 99/1/2 100/1/2 104/1/2
f 104/1/2 100/1/2 105/1/2
f 96/1/2 98/1/2 108/1/2
f 102/1/2 103/1/2 109/1/2
f 106/1/2 107/1/2 110/1/2
f 101/1/2 97/1/2 111/1/2
f 108/1/2 109/1/2 112/1/2
f 109/1/2 103/1/2 112/1/2
f 110/1/2 111/1/2 115/1/2
f 106/1/2 110/1/2 115/1/2
f 108/1/2 112/1/2 117/1/2
f 96/1/2 108/1/2 117/1/2
f 115/1/2 111/1/2 118/1/2
f 111/1/2 97/1/2 118/1/2
f 117/1/2 112/1/2 120/1/2
f 113/1/2 114/1/2 121/1/2
f 121/1/2 114/1/2 122/1/2
f 115/1/2 118/1/2 123/1/2
f 116/3/2 117/3/2 124/3/2
f 121/1/2 122/1/2 125/1/2
f 124/3/2 117/3/2 125/3/2
f 117/1/2 120/1/2 125/1/2
f 122/1/2 123/1/2 125/1/2
f 120/1/2 121/1/2 125/1/2
f 123/1/2 118/1/2 126/1/2
f 125/1/2 123/1/2 126/1/2
f 118/3/2 119/3/2 126/3/2
f 126/3/2 119/3/2 127/3/2
f 125/2/2 126/2/2 129/2/2
f 129/2/2 126/2/2 130/2/2
f 128/2/2 129/2/2 132/2/2
f 132/2/2 129/2/2 133/2/2
f 130/2/2 131/2/2 134/2/2
f 134/2/2 131/2/2 135/2/2
f 136/3/2 137/3/2 140/3/2
f 140/3/2 137/3/2 141/3/2
f 141/3/2 137/3/2 142/3/2
f 138/3/2 139/3/2 143/3/2
f 143/3/2 139/3/2 144/3/2
f 144/3/2 139/3/2 145/3/2
f 136/3/2 140/3/2 146/3/2
f 146/3/2 140/3/2 147/3/2
f 145/3/2 139/3/2 148/3/2
f 148/3/2 139/3/2 149/3/2
f 141/3/2 142/3/2 150/3/2
f 143/3/2 144/3/2 150/3/2
f 142/3/2 143/3/2 150/3/2
f 150/3/2 144/3/2 151/3/2
f 151/3/2 144/3/2 152/3/2
f 152/3/2 144/3/2 153/3/2
f 150/2/2 151/2/2 154/2/2
f 154/2/2 151/2/2 155/2/2
f 152/2/2 153/2/2 156/2/2
f 156/2/2 153/2/2 157/2/2
f 158/2/2 159/2/2 160/2/2
f 160/2/2 159/2/2 161/2/2
f 162/1/2 163/1/2 166/1/2
f 166/1/2 163/1/2 167/1/2
f 164/1/2 165/1/2 168/1/2
f 168/1/2 165/1/2 169/1/2
f 174/2/3 171/2/3 170/2/3
f 175/2/3 171/2/3 174/2/3
f 176/2/3 173/2/3 172/2/3
f 177/2/3 173/2/3 176/2/3
f 178/1/3 177/1/3 176/1/3
f 179/1/3 177/1/3 178/1/3
f 182/3/3 181/3/3 180/3/3
f 183/3/3 181/3/3 182/3/3
f 190/3/3 187/3/3 186/3/3
f 191/3/3 187/3/3 190/3/3
f 192/2/3 185/2/3 184/2/3
f 193/2/3 185/2/3 192/2/3
f 194/2/3 189/2/3 188/2/3
f 195/2/3 189/2/3 194/2/3
f 196/2/3 194/2/3 188/2/3
f 197/2/3 194/2/3 196/2/3
f 198/2/3 189/2/3 195/2/3
f 199/1/3 190/1/3 189/1/3
f 199/2/3 189/2/3 198/2/3
f 200/1/3 190/1/3 199/1/3
f 201/2/3 192/2/3 191/2/3
f 202/2/3 192/2/3 201/2/3
f 204/2/3 203/2/3 202/2/3
f 205/2/3 203/2/3 204/2/3
f 208/3/3 207/3/3 206/3/3
f 209/3/3 207/3/3 208/3/3
f 213/3/3 211/3/3 210/3/3
f 214/2/3 212/2/3 211/2/3
f 214/3/3 211/3/3 213/3/3
f 215/2/3 212/2/3 214/2/3
f 218/2/3 217/2/3 216/2/3
f 219/2/3 217/2/3 218/2/3
f 222/1/3 221/1/3 220/1/3
f 223/1/3 221/1/3 222/1/3
f 228/3/3 225/3/3 224/3/3
f 229/3/3 225/3/3 228/3/3
f 230/2/3 227/2/3 226/2/3
f 231/2/3 227/2/3 230/2/3
f 234/3/3 233/3/3 232/3/3
f 235/3/3 233/3/3 234/3/3
f 238/2/3 237/2/3 236/2/3
f 239/2/3 237/2/3 238/2/3
f 242/2/3 241/2/3 240/2/3
f 243/2/3 241/2/3 242/2/3
f 246/2/3 245/2/3 244/2/3
f 247/2/3 245/2/3 246/2/3
f 248/1/3 247/1/3 246/1/3
f 249/1/3 247/1/3 248/1/3
f 250/2/4 251/2/4 252/2/4
f 252/2/4 251/2/4 253/2/4
f 252/1/4 253/1/4 254/1/4
f 254/1/4 253/1/4 255/1/4
f 256/3/4 257/3/4 258/3/4
f 258/3/4 257/3/4 259/3/4
f 260/2/4 261/2/4 262/2/4
f 262/2/4 261/2/4 263/2/4
f 264/2/4 265/2/4 266/2/4
f 266/2/4 265/2/4 267/2/4
f 268/3/4 269/3/4 272/3/4
f 272/3/4 269/3/4 273/3/4
f 270/2/4 271/2/4 274/2/4
f 274/2/4 271/2/4 275/2/4
f 276/1/4 277/1/4 278/1/4
f 278/1/4 277/1/4 279/1/4
f 280/2/4 281/2/4 282/2/4
f 282/2/4 281/2/4 283/2/4
f 284/3/4 285/3/4 287/3/4
f 285/2/4 286/2/4 288/2/4
f 287/3/4 285/3/4 288/3/4
f 288/2/4 286/2/4 289/2/4
f 290/2/4 291/2/4 292/2/4
f 292/2/4 291/2/4 293/2/4
f 294/3/4 295/3/4 296/3/4
f 296/3/4 295/3/4 297/3/4
f 298/2/4 299/2/4 302/2/4
f 302/2/4 299/2/4 303/2/4
f 300/3/4 301/3/4 306/3/4
f 306/3/4 301/3/4 307/3/4
f 304/2/4 305/2/4 309/2/4
f 309/2/4 305/2/4 310/2/4
f 304/2/4 309/2/4 311/2/4
f 311/2/4 309/2/4 312/2/4
f 310/2/4 305/2/4 313/2/4
f 305/1/4 306/1/4 314/1/4
f 313/2/4 305/2/4 314/2/4
f 314/1/4 306/1/4 315/1/4
f 307/2/4 308/2/4 316/2/4
f 316/2/4 308/2/4 317/2/4
f 317/2/4 318/2/4 319/2/4
f 319/2/4 318/2/4 320/2/4
f 321/3/4 322/3/4 323/3/4
f 323/3/4 322/3/4 324/3/4
f 325/2/4 326/2/4 329/2/4
f 329/2/4 326/2/4 330/2/4
f 327/2/4 328/2/4 331/2/4
f 331/2/4 328/2/4 332/2/4
f 331/1/4 332/1/4 333/1/4
f 333/1/4 332/1/4 334/1/4
f 337/2/5 336/2/5 335/2/5
f 338/2/5 336/2/5 337/2/5
f 341/2/5 340/2/5 339/2/5
f 342/2/5 340/2/5 341/2/5
f 346/2/5 344/2/5 343/2/5
f 347/2/5 344/2/5 346/2/5
f 348/1/5 345/1/5 344/1/5
f 348/2/5 344/2/5 347/2/5
f 349/1/5 345/1/5 348/1/5
f 354/2/5 351/2/5 350/2/5
f 354/2/5 352/2/5 351/2/5
f 355/1/5 353/1/5 352/1/5
f 355/2/5 352/2/5 354/2/5
f 356/1/5 353/1/5 355/1/5
f 359/3/5 358/3/5 357/3/5
f 360/3/5 358/3/5 359/3/5
f 363/3/5 362/3/5 361/3/5
f 364/3/5 362/3/5 363/3/5
f 367/1/5 366/1/5 365/1/5
f 368/1/5 366/1/5 367/1/5
f 371/3/5 370/3/5 369/3/5
f 372/3/5 370/3/5 371/3/5
f 376/3/5 374/3/5 373/3/5
f 377/3/5 374/3/5 376/3/5
f 378/3/5 376/3/5 375/3/5
f 379/3/5 376/3/5 378/3/5
f 381/3/5 380/3/5 379/3/5
f 382/3/5 380/3/5 381/3/5
f 385/2/5 384/2/5 383/2/5
f 386/2/5 384/2/5 385/2/5
f 390/2/5 388/2/5 387/2/5
f 391/2/5 388/2/5 390/2/5
f 393/2/5 390/2/5 389/2/5
f 394/2/5 390/2/5 393/2/5
f 395/2/5 390/2/5 394/2/5
f 396/2/5 392/2/5 391/2/5
f 397/2/5 392/2/5 396/2/5
f 398/2/5 395/2/5 394/2/5
f 398/2/5 396/2/5 395/2/5
f 399/2/5 396/2/5 398/2/5
f 403/2/5 401/2/5 400/2/5
f 404/2/5 403/2/5 402/2/5
f 405/2/5 401/2/5 403/2/5
f 405/2/5 403/2/5 404/2/5
f 406/2/6 407/2/6 408/2/6
f 408/2/6 407/2/6 409/2/6
f 410/2/6 411/2/6 413/2/6
f 413/2/6 411/2/6 414/2/6
f 411/1/6 412/1/6 415/1/6
f 414/2/6 411/2/6 415/2/6
f 415/1/6 412/1/6 416/1/6
f 417/2/6 418/2/6 421/2/6
f 418/2/6 419/2/6 421/2/6
f 419/1/6 420/1/6 422/1/6
f 421/2/6 419/2/6 422/2/6
f 422/1/6 420/1/6 423/1/6
f 424/1/6 425/1/6 426/1/6
f 426/1/6 425/1/6 427/1/6
f 428/3/6 429/3/6 430/3/6
f 430/3/6 429/3/6 431/3/6
f 432/3/6 433/3/6 434/3/6
f 434/3/6 433/3/6 435/3/6
f 436/3/6 437/3/6 438/3/6
f 438/3/6 437/3/6 439/3/6
f 440/3/6 441/3/6 442/3/6
f 442/3/6 441/3/6 443/3/6
f 444/3/6 445/3/6 446/3/6
f 446/3/6 445/3/6 447/3/6
f 448/1/6 449/1/6 450/1/6
f 450/1/6 449/1/6 451/1/6
f 452/2/6 453/2/6 454/2/6
f 454/2/6 453/2/6 455/2/6
f 456/2/6 457/2/6 458/2/6
f 458/2/6 457/2/6 459/2/6
f 460/3/6 461/3/6 463/3/6
f 463/3/6 461/3/6 464/3/6
f 462/3/6 463/3/6 465/3/6
f 465/3/6 463/3/6 466/3/6
f 466/3/6 467/3/6 468/3/6
f 468/3/6 467/3/6 469/3/6
f 470/2/6 471/2/6 473/2/6
f 472/2/6 473/2/6 474/2/6
f 473/2/6 471/2/6 475/2/6
f 474/2/6 473/2/6 475/2/6
f 476/2/6 477/2/6 479/2/6
f 479/2/6 477/2/6 480/2/6
f 478/2/6 479/2/6 482/2/6
f 480/2/6 481/2/6 482/2/6
f 479/2/6 480/2/6 482/2/6
f 482/2/6 481/2/6 483/2/6
f 483/2/6 481/2/6 484/2/6
f 484/2/6 481/2/6 485/2/6
f 483/2/6 484/2/6 486/2/6
f 486/2/6 484/2/6 487/2/6
